<svg width="44" height="44" viewBox="0 0 44 44" fill="none" xmlns="http://www.w3.org/2000/svg">
<rect width="44" height="44" rx="5" fill="black" fill-opacity="0.2"/>
<path fill-rule="evenodd" clip-rule="evenodd" d="M17.5432 21.9774C17.5501 21.4025 17.7028 20.8388 17.9869 20.339C18.2711 19.8392 18.6774 19.4197 19.1678 19.1197C18.8559 18.6763 18.4457 18.3111 17.9691 18.0526C17.4925 17.7942 16.9627 17.6496 16.4209 17.6302C15.2536 17.5124 14.1382 18.323 13.5458 18.323C12.9535 18.323 12.039 17.651 11.0691 17.6718C10.4307 17.6865 9.8071 17.8678 9.26027 18.1977C8.71344 18.5276 8.26232 18.9947 7.95161 19.5527C6.62839 21.8492 7.60522 25.2543 8.90419 27.1179C9.53462 28.0254 10.2898 29.0542 11.2735 29.0161C12.2573 28.978 12.5829 28.403 13.7329 28.403C14.8829 28.403 15.2051 29.0161 16.2131 28.9953C17.2211 28.9745 17.8827 28.067 18.5096 27.1525C18.9582 26.4945 19.3083 25.7745 19.5488 25.0153C18.9535 24.7613 18.446 24.3379 18.0894 23.7978C17.7329 23.2576 17.5429 22.6246 17.5432 21.9774ZM15.6554 16.4005C16.2225 15.735 16.5028 14.8718 16.4348 14C15.5834 14.0865 14.7969 14.494 14.2352 15.1396C13.9523 15.4525 13.7358 15.8194 13.5989 16.2184C13.4619 16.6173 13.4074 17.0398 13.4385 17.4605C13.8646 17.4662 14.2863 17.3735 14.6708 17.1896C15.0553 17.0058 15.3922 16.7358 15.6554 16.4005Z" fill="#F9F9F9"/>
<path d="M26.359 19.9025V18.1705H24.2494V15.7458H22.3754V18.1705H20.7405V19.9025H22.3754V26.1895C22.3764 26.9352 22.673 27.6501 23.2003 28.1774C23.7276 28.7047 24.4425 29.0013 25.1882 29.0022H26.1269V27.1386H25.1882C25.0641 27.1382 24.9414 27.1132 24.8271 27.0653C24.7127 27.0173 24.6089 26.9472 24.5217 26.859C24.4345 26.7708 24.3655 26.6663 24.3188 26.5514C24.2721 26.4365 24.2485 26.3135 24.2494 26.1895V19.9025H26.359ZM35.1227 17.6856L32.31 26.1306L29.4938 17.6856H27.6164L31.3713 28.9606H33.2487L37.0001 17.6994L35.1227 17.6856Z" fill="#F9F9F9"/>
</svg>
