<svg width="44" height="44" viewBox="0 0 44 44" fill="none" xmlns="http://www.w3.org/2000/svg">
<rect width="44" height="44" rx="5" fill="black" fill-opacity="0.2"/>
<path fill-rule="evenodd" clip-rule="evenodd" d="M17.5431 21.9774C17.5501 21.4025 17.7028 20.8388 17.9869 20.339C18.271 19.8392 18.6773 19.4197 19.1677 19.1197C18.8559 18.6763 18.4456 18.3111 17.969 18.0526C17.4925 17.7942 16.9626 17.6496 16.4208 17.6302C15.2535 17.5124 14.1381 18.323 13.5458 18.323C12.9535 18.323 12.039 17.651 11.0691 17.6718C10.4306 17.6865 9.80704 17.8678 9.26021 18.1977C8.71338 18.5276 8.26226 18.9947 7.95155 19.5527C6.62833 21.8492 7.60516 25.2543 8.90413 27.1179C9.53456 28.0254 10.2897 29.0542 11.2735 29.0161C12.2572 28.978 12.5828 28.403 13.7328 28.403C14.8829 28.403 15.205 29.0161 16.213 28.9953C17.221 28.9745 17.8826 28.067 18.5096 27.1525C18.9581 26.4945 19.3082 25.7745 19.5488 25.0153C18.9535 24.7613 18.446 24.3379 18.0894 23.7978C17.7328 23.2576 17.5428 22.6246 17.5431 21.9774ZM15.6553 16.4005C16.2225 15.735 16.5027 14.8718 16.4347 14C15.5833 14.0865 14.7968 14.494 14.2351 15.1396C13.9522 15.4525 13.7358 15.8194 13.5988 16.2184C13.4619 16.6173 13.4073 17.0398 13.4384 17.4605C13.8646 17.4662 14.2863 17.3735 14.6708 17.1896C15.0553 17.0058 15.3922 16.7358 15.6553 16.4005Z" fill="#F9F9F9"/>
<path d="M26.3588 19.9025V18.1705H24.2493V15.7458H22.3753V18.1705H20.7404V19.9025H22.3753V26.1895C22.3762 26.9352 22.6729 27.6501 23.2002 28.1774C23.7274 28.7047 24.4423 29.0013 25.188 29.0022H26.1268V27.1386H25.188C25.064 27.1382 24.9413 27.1132 24.8269 27.0653C24.7126 27.0173 24.6088 26.9472 24.5216 26.859C24.4344 26.7708 24.3654 26.6663 24.3187 26.5514C24.272 26.4365 24.2484 26.3135 24.2493 26.1895V19.9025H26.3588ZM35.1226 17.6856L32.3099 26.1306L29.4937 17.6856H27.6162L31.3711 28.9606H33.2486L37 17.6994L35.1226 17.6856Z" fill="#F9F9F9"/>
</svg>
