<svg width="63" height="65" viewBox="0 0 63 65" fill="none" xmlns="http://www.w3.org/2000/svg">
<path fill-rule="evenodd" clip-rule="evenodd" d="M24.9192 32.2214C24.9291 31.3917 25.146 30.578 25.5496 29.8567C25.9531 29.1353 26.5303 28.5297 27.2269 28.0967C26.7839 27.4567 26.2011 26.9296 25.5242 26.5566C24.8473 26.1836 24.0946 25.9749 23.3251 25.9468C21.6669 25.7768 20.0825 26.9468 19.2412 26.9468C18.3998 26.9468 17.1008 25.9768 15.7231 26.0068C14.8162 26.028 13.9305 26.2897 13.1537 26.7659C12.377 27.2421 11.7362 27.9163 11.2948 28.7216C9.41525 32.0364 10.8028 36.9512 12.6479 39.641C13.5434 40.9509 14.616 42.4358 16.0134 42.3808C17.4108 42.3258 17.8733 41.4959 19.5069 41.4959C21.1404 41.4959 21.598 42.3808 23.0298 42.3508C24.4617 42.3208 25.4014 41.0109 26.292 39.691C26.9292 38.7412 27.4265 37.702 27.7681 36.6062C26.9225 36.2396 26.2017 35.6285 25.6951 34.8489C25.1886 34.0693 24.9188 33.1556 24.9192 32.2214ZM22.2377 24.1719C23.0433 23.2113 23.4414 21.9654 23.3447 20.7071C22.1354 20.832 21.0182 21.4202 20.2203 22.352C19.8185 22.8036 19.511 23.3332 19.3165 23.909C19.122 24.4848 19.0445 25.0947 19.0886 25.7018C19.694 25.71 20.293 25.5763 20.8392 25.3109C21.3853 25.0456 21.8639 24.6558 22.2377 24.1719Z" fill="#F9F9F9"/>
<path d="M37.4415 29.2266V26.7268H34.445V23.227H31.7831V26.7268H29.4607V29.2266H31.7831V38.3011C31.7844 39.3774 32.2058 40.4092 32.9548 41.1703C33.7038 41.9314 34.7192 42.3595 35.7784 42.3608H37.1119V39.671H35.7784C35.6023 39.6703 35.428 39.6343 35.2655 39.5651C35.1031 39.4958 34.9557 39.3946 34.8318 39.2674C34.7079 39.1401 34.61 38.9892 34.5436 38.8234C34.4772 38.6576 34.4437 38.4801 34.445 38.3011V29.2266H37.4415ZM49.89 26.0268L45.8947 38.2161L41.8944 26.0268H39.2276L44.5613 42.3008H47.2281L52.5568 26.0468L49.89 26.0268Z" fill="#F9F9F9"/>
</svg>
