<svg width="64" height="64" viewBox="0 0 64 64" fill="none" xmlns="http://www.w3.org/2000/svg">
<path d="M29.6286 35.9807C29.6541 35.9842 29.6597 35.9852 29.6846 35.9884C30.1005 36.045 30.5093 36.1199 30.8221 36.2598C31.1121 36.3878 31.2821 36.5498 31.4373 36.8387C31.6732 37.2766 31.6886 37.8901 31.4754 38.3545C31.3161 38.7 30.9664 38.9898 30.6471 39.1433C30.3156 39.3041 29.989 39.3806 29.6143 39.4234C28.9591 39.4955 28.2515 39.3598 27.6619 39.0746C27.3131 38.9043 26.8872 38.6109 26.6723 38.233C26.5143 37.9562 26.5194 37.596 26.7116 37.3329C27.018 36.9135 27.6743 36.8211 28.1686 36.8387C28.5454 36.8532 29.2239 36.9697 29.5817 37.097C29.6809 37.1329 30.0467 37.2754 30.1105 37.3407C30.1554 37.3862 30.1846 37.4522 30.1644 37.5133C30.0826 37.7633 29.475 37.8951 29.2995 37.9216C28.8298 37.9936 28.5861 37.8158 28.0521 37.6049C27.9195 37.553 27.7429 37.4954 27.6079 37.483C27.3655 37.4599 27.0726 37.5278 27.0264 37.7924C27.0034 37.9288 27.1633 38.0564 27.2853 38.11C27.5717 38.233 27.8046 38.2773 28.0865 38.2811C28.9194 38.2948 29.8554 38.1577 30.5366 37.675C30.6298 37.6085 30.7214 37.511 30.7224 37.3882C30.7253 37.1403 30.2906 36.9886 30.2906 36.9886C29.8317 36.7973 28.9838 36.7042 28.5471 36.6682C28.0887 36.6285 27.3675 36.5692 27.1943 36.5437C27.0161 36.5183 26.8224 36.4823 26.668 36.4131C26.5129 36.343 26.3612 36.1862 26.3161 36.0127C26.2363 35.7 26.3382 35.3163 26.5118 35.0665C26.967 34.4121 28.0332 34.1636 28.8298 34.0648C29.6007 33.9689 30.8471 33.9699 31.6043 34.3723C31.7212 34.4349 31.7809 34.4932 31.7565 34.6182C31.7072 34.8528 31.5308 35.0041 31.3171 35.0703C31.0928 35.1417 30.629 35.1695 30.4253 35.1823C29.5123 35.2335 28.4091 35.2067 27.5395 35.4438C27.4714 35.4633 27.3537 35.495 27.3155 35.5377C27.1794 35.6855 27.5681 35.7277 27.6514 35.7446C27.6762 35.7505 27.681 35.7513 27.7068 35.7541L29.6286 35.9807ZM24.1975 31.9099C24.1975 31.9099 24.346 31.6872 24.4704 31.5182C24.697 31.2105 25.107 30.7838 25.4157 30.5196C25.5102 30.4389 25.6215 30.3475 25.6215 30.3475C25.6215 30.3475 25.4474 30.3656 25.3487 30.3857C25.1144 30.4313 24.7709 30.6596 24.5993 30.8071C24.3161 31.0496 24.0046 31.4437 24.1455 31.7939C24.1621 31.8329 24.1794 31.8716 24.1975 31.9099ZM25.7719 32.3312C26.2193 32.3004 26.6384 32.1716 27.0286 31.9551C27.4113 31.741 27.9741 31.3235 27.9157 30.8326C27.898 30.6738 27.794 30.5538 27.6627 30.4978C27.492 30.4239 27.403 30.4358 27.185 30.5006C27.0266 30.5469 26.9553 30.5751 26.8057 30.6606C26.3668 30.9156 25.7445 31.4614 25.4066 31.8969C25.3287 31.9996 25.2497 32.1145 25.1879 32.1933C25.1489 32.2418 25.1186 32.2864 25.1224 32.2982C25.1359 32.3476 25.5972 32.3431 25.7719 32.3312ZM24.6328 33.1679C24.5866 33.2168 24.5378 33.3344 24.4872 33.4197C24.4601 33.4653 24.41 33.524 24.3768 33.5475C24.2604 33.6331 24.1617 33.6371 24.0493 33.5382C23.8917 33.3987 23.8005 33.1831 23.7941 32.9733C23.7907 32.8818 23.8064 32.7805 23.7891 32.7033C23.7604 32.573 23.63 32.4388 23.5597 32.3142C23.4772 32.1675 23.4104 31.9116 23.4021 31.7464C23.3738 31.2313 23.6453 30.7568 23.998 30.3825C24.3532 30.004 24.818 29.6895 25.3234 29.4754C25.8012 29.2742 26.5013 29.137 27.0259 29.3187C27.1967 29.3772 27.4346 29.5225 27.5542 29.6748C27.5796 29.7064 27.6003 29.7406 27.6264 29.7573C27.6497 29.7722 27.7107 29.7781 27.7592 29.787C27.9266 29.816 28.1675 29.9427 28.2659 30.027C28.4636 30.1976 28.572 30.3607 28.6221 30.5973C28.7226 31.0734 28.4484 31.5957 28.1361 31.9136C27.6014 32.4607 27.0734 32.8454 26.3893 33.1132C26.0889 33.2306 25.621 33.3402 25.2801 33.3096C25.1743 33.3008 25.0655 33.2729 24.9624 33.266C24.9098 33.2615 24.7175 33.2119 24.697 33.1979C24.6715 33.1783 24.6385 33.1613 24.6328 33.1679ZM25.2437 34.2235C25.2645 34.227 25.2966 34.2363 25.3242 34.247C25.564 34.3382 25.6627 34.5601 25.7218 34.8039C25.8587 35.37 25.9171 36.6223 25.9399 37.1125C25.9566 37.4804 25.9658 37.8423 25.9812 38.206C25.9943 38.514 26.0188 38.9234 25.9546 39.212C25.9313 39.3158 25.8619 39.4364 25.7625 39.4982C25.6486 39.5711 25.3895 39.5767 25.247 39.5473C24.8959 39.4747 24.7819 39.2489 24.7317 38.9017C24.6126 38.0731 24.67 36.447 24.7403 35.7609C24.7637 35.5342 24.849 34.8081 24.9673 34.5036C25.0078 34.401 25.0938 34.1942 25.2437 34.2235ZM14.5623 35.602C14.5623 35.602 14.0397 35.639 13.6801 35.6789C13.2225 35.7282 12.3627 35.8767 11.8665 36.0539C11.7176 36.1072 11.4152 36.2337 11.3889 36.3868C11.3613 36.5455 11.4598 36.6695 11.5693 36.7979C11.6326 36.8724 11.991 37.2172 12.0915 37.301C12.5128 37.6527 13.367 38.1951 13.9962 38.4585C14.2123 38.5479 14.5699 38.676 14.5699 38.676C14.5699 38.676 14.5434 37.6578 14.5481 36.6549C14.5509 36.1259 14.5623 35.602 14.5623 35.602ZM24.144 36.0072C24.1739 36.2808 24.1036 36.7979 24.0914 36.8661C24.0691 37.0234 23.9506 37.386 23.9309 37.4303C23.8352 37.6507 23.7408 37.8313 23.6408 38.0114C23.4695 38.3198 23.062 38.8087 22.8202 39.0179C21.9207 39.7954 20.5282 40.238 19.3336 40.3838C18.5231 40.4817 17.5917 40.4674 16.7328 40.3084C16.4372 40.2547 15.9973 40.1533 15.9973 40.1533C15.9973 40.1533 15.9987 40.3292 15.9846 40.4529C15.9778 40.5093 15.9353 40.6579 15.9115 40.706C15.849 40.835 15.7465 40.9015 15.5974 40.9302C15.4174 40.9636 15.2266 40.9747 15.0603 40.9036C14.7873 40.7887 14.6893 40.5333 14.6417 40.2388C14.6033 40.0032 14.563 39.5936 14.563 39.5936C14.563 39.5936 14.3588 39.4969 14.1885 39.4119C13.6654 39.1542 13.1686 38.8419 12.734 38.5208C12.6136 38.4309 12.0963 37.9977 11.9821 37.8901C11.6619 37.5861 11.3739 37.2838 11.1548 36.8957C10.9845 36.5926 10.9354 36.3236 11.065 36.0024C11.2436 35.5547 11.8855 35.2176 12.3248 35.0255C12.6472 34.8832 13.6498 34.5558 14.0662 34.4951C14.263 34.467 14.5681 34.4124 14.5868 34.4002C14.5945 34.3943 14.5998 34.3893 14.6053 34.383C14.6149 34.3695 14.6312 33.9263 14.628 33.7642C14.624 33.6048 14.746 32.5579 14.7852 32.3365C14.8057 32.2168 14.8963 31.756 14.9889 31.635C15.0494 31.5533 15.1565 31.5599 15.2438 31.6135C15.7215 31.9106 15.8666 32.9407 15.9021 33.4648C15.9233 33.7841 15.9339 34.2645 15.9339 34.2645C15.9339 34.2645 16.4819 34.2483 16.8189 34.2578C17.1465 34.2654 17.5075 34.3171 17.8475 34.3713C18.2828 34.4411 19.1312 34.6262 19.6178 34.8728C20.0185 35.076 20.3935 35.4182 20.515 35.7804C20.6279 36.1125 20.611 36.3422 20.439 36.6419C20.2457 36.9803 19.88 37.2318 19.5092 37.2528C19.3989 37.2591 18.9835 37.2039 18.8557 37.105C18.8056 37.0656 18.8082 36.9944 18.8444 36.9461C18.8581 36.9292 19.0522 36.826 19.1668 36.7657C19.2209 36.7368 19.2713 36.7013 19.3166 36.66C19.4118 36.5761 19.4975 36.4838 19.488 36.3757C19.4748 36.2353 19.3262 36.1487 19.1846 36.093C18.5201 35.829 17.1935 35.6099 16.5524 35.572C16.3015 35.5572 15.9446 35.5446 15.9446 35.5446L16.02 39.0847C16.02 39.0847 16.3151 39.1409 16.5477 39.1786C16.6811 39.1988 17.2465 39.2497 17.3967 39.2534C18.5407 39.2836 19.8175 39.1812 20.8673 38.6858C21.3282 38.4689 21.7511 38.1988 22.0712 37.8332C22.4931 37.3495 22.7141 36.6875 22.6556 35.9961C22.5915 35.2409 22.06 34.3445 21.6356 33.7986C20.5142 32.3565 18.5921 31.1703 16.901 30.4748C15.1745 29.7652 13.4682 29.357 11.6359 29.2887C11.1635 29.2712 10.1336 29.295 9.613 29.439C9.53863 29.46 9.46367 29.485 9.39462 29.5005C9.34008 29.5139 9.25412 29.55 9.23052 29.5691C9.21745 29.5796 9.20452 29.5943 9.20452 29.5943C9.20452 29.5943 9.23662 29.612 9.26729 29.625C9.32243 29.6491 9.55457 29.6635 9.6747 29.6854C9.78218 29.7057 9.89409 29.7621 9.93838 29.8409C9.98046 29.9157 9.98572 29.9748 9.93543 30.0372C9.81746 30.1807 9.37347 30.1565 9.17796 30.1255C8.97478 30.0931 8.72182 30.031 8.67535 29.8541C8.62145 29.6457 8.72043 29.4415 8.82735 29.2527C9.04217 28.8749 9.34987 28.6784 9.80047 28.5554C10.4405 28.3793 11.2486 28.2561 11.853 28.2331C13.2208 28.1814 14.5155 28.4206 15.8408 28.823C16.5993 29.0523 17.5924 29.4372 18.3194 29.7872C18.8411 30.0388 19.663 30.5013 20.1248 30.8036C20.2704 30.8998 21.1226 31.5259 21.255 31.636C21.5311 31.8617 21.8923 32.1862 22.1539 32.4458C22.6599 32.9472 23.2893 33.7159 23.595 34.3259C23.6686 34.472 23.7256 34.6158 23.8205 34.7851C23.8532 34.8431 23.9928 35.1901 24.0161 35.2903C24.0391 35.3894 24.0728 35.5352 24.0775 35.541C24.0843 35.5942 24.149 35.8923 24.144 36.0072ZM41.3404 35.2245C40.6999 35.3722 39.0154 35.4542 39.0154 35.4542L38.803 36.1196C38.803 36.1196 39.6448 36.0477 40.2572 36.1117C40.2572 36.1117 40.4556 36.0887 40.4789 36.337C40.4868 36.5686 40.4592 36.817 40.4592 36.817C40.4592 36.817 40.4465 36.9674 40.2335 37.0056C40.0026 37.0441 38.4191 37.1053 38.4191 37.1053L38.1626 37.9726C38.1626 37.9726 38.0673 38.1731 38.2809 38.1159C38.4793 38.0628 40.1386 37.7514 40.3547 37.7962C40.5862 37.8538 40.8425 38.1625 40.7685 38.4439C40.6801 38.7926 39.0241 39.8488 38.0156 39.7751C38.0156 39.7751 37.4857 39.8093 37.0377 39.0941C36.6206 38.4125 37.1958 37.1221 37.1958 37.1221C37.1958 37.1221 36.9322 36.5196 37.1232 36.3154C37.1232 36.3154 37.237 36.2123 37.5684 36.1889L37.9743 35.3492C37.9743 35.3492 37.512 35.381 37.237 35.0409C36.9808 34.7183 36.9593 34.57 37.1557 34.4809C37.3658 34.3771 39.2911 34.0257 40.616 34.0703C40.616 34.0703 41.0764 34.0251 41.4758 34.8237C41.4759 34.8238 41.6693 35.1468 41.3404 35.2245ZM36.3573 38.4533C36.1875 38.8526 35.739 39.2788 35.1818 39.0139C34.6317 38.7484 33.7556 36.9553 33.7556 36.9553C33.7556 36.9553 33.423 36.2866 33.359 36.3039C33.359 36.3039 33.2872 36.1733 33.2431 36.904C33.1973 37.6315 33.2519 39.0503 32.9617 39.2736C32.6868 39.4975 32.3538 39.4084 32.1812 39.1468C32.0242 38.889 31.9589 38.2766 32.0446 37.2011C32.1452 36.1234 32.3955 34.9769 32.7154 34.6199C33.0348 34.2653 33.2912 34.5227 33.3911 34.6161C33.3911 34.6161 33.8184 35.0033 34.5229 36.1404L34.6472 36.3507C34.6472 36.3507 35.2875 37.425 35.3544 37.4225C35.3544 37.4225 35.4067 37.4719 35.4534 37.4364C35.5206 37.4172 35.4934 37.0727 35.4934 37.0727C35.4934 37.0727 35.3606 35.902 34.7765 33.9204C34.7765 33.9204 34.6882 33.6733 34.7479 33.4417C34.8072 33.2078 35.0418 33.3176 35.0418 33.3176C35.0418 33.3176 35.947 33.7728 36.3865 35.2466C36.823 36.721 36.5296 38.0509 36.3573 38.4533ZM46.1002 37.5705C45.6881 38.2895 44.5247 39.795 42.9787 39.4396C42.4681 40.6777 42.0392 41.9301 41.794 43.8042C41.794 43.8042 41.7401 44.1684 41.4374 44.0419C41.1375 43.9369 40.6434 43.4382 40.5435 42.7483C40.436 41.8421 40.8394 40.3101 41.664 38.5535C41.4235 38.1625 41.2595 37.6039 41.3999 36.8085C41.3999 36.8085 41.607 35.3315 43.0904 34.0003C43.0904 34.0003 43.2682 33.8467 43.3713 33.894C43.4848 33.9416 43.4322 34.4222 43.3421 34.656C43.2485 34.8883 42.5881 36.0316 42.5881 36.0316C42.5881 36.0316 42.1762 36.804 42.2921 37.4132C43.0701 36.2171 44.8386 33.8051 45.9347 34.5657C46.3029 34.8292 46.4727 35.4022 46.4727 36.0197C46.4729 36.562 46.3421 37.1385 46.1002 37.5705ZM45.7803 35.6762C45.7803 35.6762 45.7193 35.2007 45.2544 35.7246C44.8545 36.1667 44.1332 36.995 43.5526 38.1201C44.1618 38.0517 44.7494 37.7211 44.9271 37.5528C45.2159 37.2965 45.8888 36.6012 45.7803 35.6762ZM54.6171 35.568H51.7836C51.7271 34.6049 51.6109 33.6668 51.4281 32.7007C51.4191 32.6523 51.3935 32.6086 51.3557 32.5771C51.3179 32.5456 51.2703 32.5283 51.2211 32.5282H50.5678C50.5396 32.5282 50.5117 32.5346 50.4862 32.5467C50.4607 32.5588 50.4382 32.5764 50.4203 32.5983C50.4022 32.6202 50.3892 32.6459 50.3822 32.6734C50.3752 32.701 50.3744 32.7298 50.3798 32.7577C50.5654 33.6926 50.6829 34.6128 50.741 35.5689H48.015C47.8879 35.5689 47.7848 35.6717 47.7848 35.7982V36.3874C47.7848 36.4485 47.8091 36.507 47.8522 36.5502C47.8954 36.5933 47.9539 36.6177 48.015 36.6178H50.78C50.7817 36.7632 50.7832 36.8934 50.7832 37.0156C50.7832 37.8647 50.7465 38.5641 50.661 39.3534C50.6576 39.3835 50.6607 39.4139 50.6701 39.4426C50.6796 39.4713 50.695 39.4977 50.7155 39.5199C50.7353 39.5422 50.7596 39.56 50.7868 39.5722C50.814 39.5844 50.8435 39.5908 50.8733 39.5908H51.4792C51.5361 39.5909 51.591 39.5698 51.6332 39.5315C51.6753 39.4933 51.7017 39.4408 51.7072 39.3841C51.79 38.5894 51.8255 37.8813 51.8255 37.0155C51.8255 36.8938 51.8242 36.7631 51.8224 36.6177H54.6171C54.7438 36.6177 54.8473 36.5141 54.8473 36.3874V35.7982C54.8472 35.7372 54.8229 35.6787 54.7798 35.6355C54.7366 35.5924 54.6781 35.5681 54.6171 35.568Z" fill="white"/>
<path d="M16.7297 27.6731C16.7099 27.7023 16.6972 27.7358 16.6926 27.7708C16.6879 27.8058 16.6915 27.8413 16.7029 27.8747C16.7144 27.9082 16.7334 27.9385 16.7583 27.9636C16.7832 27.9886 16.8136 28.0076 16.8469 28.0193L17.3548 28.1902C17.3843 28.1997 17.4151 28.2046 17.446 28.2048C17.4924 28.2049 17.5381 28.1936 17.579 28.1718C17.62 28.15 17.655 28.1185 17.6808 28.08C19.3446 25.6358 21.5963 23.6008 24.1929 22.1949C26.8736 20.7432 29.9108 19.9753 32.9771 19.9753C36.6808 19.9753 40.2542 21.0678 43.3115 23.1345C46.2946 25.1504 48.6113 27.9629 50.0113 31.2681C50.0317 31.3164 50.0659 31.3576 50.1095 31.3865C50.1532 31.4154 50.2044 31.4309 50.2568 31.4308H50.8634C50.8981 31.4307 50.9321 31.4221 50.9626 31.4058C50.9932 31.3894 51.0192 31.3659 51.0386 31.3372C51.0581 31.3085 51.0701 31.2754 51.0738 31.2409C51.0774 31.2063 51.0724 31.1715 51.0594 31.1393C49.6157 27.5856 47.1746 24.5561 43.9988 22.3796C40.7478 20.1514 36.9365 18.9734 32.9771 18.9734C26.4315 18.9734 20.3575 22.2258 16.7297 27.6731Z" fill="url(#paint0_linear_124_163)"/>
<defs>
<linearGradient id="paint0_linear_124_163" x1="51.6373" y1="27.0732" x2="17.4125" y2="22.4458" gradientUnits="userSpaceOnUse">
<stop stop-color="#B1FFFF"/>
<stop offset="0.25" stop-color="#058BBF"/>
<stop offset="0.541667" stop-color="#085AA4"/>
<stop offset="0.703125" stop-color="#0D267A"/>
<stop offset="1" stop-color="#101C50"/>
</linearGradient>
</defs>
</svg>
