<svg width="44" height="44" viewBox="0 0 44 44" fill="none" xmlns="http://www.w3.org/2000/svg">
<rect width="44" height="44" rx="5" fill="black" fill-opacity="0.2"/>
<path d="M20.5274 24.7831C20.5451 24.7855 20.549 24.7862 20.5662 24.7884C20.8544 24.8276 21.1376 24.8795 21.3544 24.9764C21.5553 25.0651 21.673 25.1774 21.7805 25.3775C21.944 25.6809 21.9547 26.106 21.8069 26.4277C21.6966 26.6671 21.4543 26.8678 21.2331 26.9742C21.0034 27.0856 20.7771 27.1386 20.5176 27.1682C20.0636 27.2182 19.5734 27.1242 19.1649 26.9266C18.9232 26.8086 18.6281 26.6054 18.4793 26.3435C18.3698 26.1517 18.3733 25.9022 18.5065 25.7199C18.7188 25.4293 19.1734 25.3653 19.5159 25.3775C19.777 25.3876 20.2471 25.4683 20.495 25.5565C20.5637 25.5813 20.8171 25.68 20.8613 25.7253C20.8924 25.7568 20.9126 25.8026 20.8987 25.8449C20.842 26.0181 20.421 26.1094 20.2995 26.1278C19.974 26.1776 19.8052 26.0545 19.4352 25.9084C19.3434 25.8724 19.221 25.8325 19.1275 25.8239C18.9595 25.8079 18.7566 25.8549 18.7245 26.0383C18.7086 26.1328 18.8194 26.2211 18.9039 26.2583C19.1024 26.3435 19.2637 26.3742 19.4591 26.3768C20.0361 26.3863 20.6845 26.2913 21.1565 25.9569C21.2211 25.9108 21.2846 25.8433 21.2852 25.7582C21.2873 25.5864 20.9861 25.4814 20.9861 25.4814C20.6682 25.3488 20.0807 25.2843 19.7781 25.2594C19.4606 25.2319 18.9609 25.1908 18.8409 25.1731C18.7174 25.1555 18.5832 25.1306 18.4763 25.0826C18.3688 25.0341 18.2637 24.9255 18.2325 24.8053C18.1772 24.5886 18.2478 24.3227 18.3681 24.1497C18.6834 23.6963 19.4221 23.5241 19.974 23.4557C20.5081 23.3893 21.3716 23.3899 21.8963 23.6687C21.9773 23.7121 22.0186 23.7525 22.0017 23.8391C21.9675 24.0017 21.8454 24.1064 21.6973 24.1523C21.5419 24.2018 21.2205 24.221 21.0794 24.2299C20.4469 24.2654 19.6825 24.2468 19.0801 24.4111C19.0329 24.4246 18.9514 24.4465 18.9249 24.4761C18.8306 24.5785 19.0999 24.6078 19.1576 24.6195C19.1747 24.6236 19.1781 24.6241 19.196 24.6261L20.5274 24.7831ZM16.7646 21.9627C16.7646 21.9627 16.8675 21.8084 16.9537 21.6914C17.1107 21.4782 17.3947 21.1825 17.6087 20.9995C17.6741 20.9436 17.7513 20.8803 17.7513 20.8803C17.7513 20.8803 17.6306 20.8927 17.5622 20.9067C17.3999 20.9383 17.1619 21.0965 17.043 21.1987C16.8468 21.3667 16.631 21.6397 16.7286 21.8823C16.7401 21.9094 16.7521 21.9362 16.7646 21.9627ZM17.8554 22.2546C18.1654 22.2332 18.4558 22.144 18.7261 21.994C18.9912 21.8457 19.3812 21.5564 19.3407 21.2164C19.3284 21.1063 19.2564 21.0232 19.1654 20.9844C19.0472 20.9332 18.9855 20.9414 18.8345 20.9863C18.7247 21.0184 18.6753 21.0379 18.5717 21.0972C18.2676 21.2739 17.8364 21.652 17.6024 21.9537C17.5483 22.0249 17.4936 22.1045 17.4508 22.159C17.4238 22.1927 17.4028 22.2235 17.4054 22.2318C17.4148 22.266 17.7344 22.2628 17.8554 22.2546ZM17.0662 22.8343C17.0342 22.8681 17.0004 22.9497 16.9653 23.0087C16.9466 23.0403 16.9119 23.081 16.8889 23.0973C16.8082 23.1566 16.7399 23.1594 16.662 23.0908C16.5528 22.9942 16.4896 22.8448 16.4851 22.6995C16.4828 22.636 16.4937 22.5659 16.4817 22.5124C16.4618 22.4221 16.3715 22.3291 16.3228 22.2428C16.2656 22.1412 16.2193 21.9639 16.2135 21.8494C16.1939 21.4925 16.3821 21.1638 16.6264 20.9045C16.8725 20.6423 17.1945 20.4244 17.5447 20.276C17.8757 20.1366 18.3607 20.0416 18.7242 20.1674C18.8426 20.208 19.0074 20.3087 19.0903 20.4142C19.1079 20.4361 19.1222 20.4598 19.1403 20.4713C19.1564 20.4816 19.1987 20.4857 19.2323 20.4919C19.3482 20.512 19.5152 20.5998 19.5833 20.6582C19.7203 20.7764 19.7954 20.8894 19.8301 21.0533C19.8997 21.3831 19.7098 21.745 19.4934 21.9653C19.123 22.3443 18.7571 22.6109 18.2832 22.7964C18.0751 22.8777 17.7509 22.9537 17.5147 22.9324C17.4414 22.9263 17.366 22.907 17.2946 22.9023C17.2582 22.8991 17.1249 22.8648 17.1107 22.8551C17.093 22.8415 17.0702 22.8297 17.0662 22.8343ZM17.4895 23.5656C17.5039 23.5681 17.5261 23.5745 17.5453 23.5819C17.7114 23.6451 17.7798 23.7988 17.8207 23.9677C17.9155 24.3599 17.956 25.2276 17.9718 25.5672C17.9834 25.8221 17.9897 26.0729 18.0004 26.3248C18.0095 26.5382 18.0265 26.8219 17.982 27.0218C17.9659 27.0937 17.9178 27.1773 17.8489 27.2201C17.77 27.2706 17.5905 27.2744 17.4918 27.2541C17.2485 27.2038 17.1695 27.0474 17.1348 26.8068C17.0523 26.2328 17.092 25.1062 17.1407 24.6308C17.1569 24.4737 17.216 23.9706 17.298 23.7597C17.326 23.6886 17.3856 23.5453 17.4895 23.5656ZM10.0891 24.5207C10.0891 24.5207 9.72709 24.5464 9.47791 24.574C9.16089 24.6081 8.56522 24.711 8.22139 24.8338C8.11825 24.8707 7.90875 24.9584 7.89054 25.0644C7.87141 25.1743 7.93963 25.2603 8.0155 25.3492C8.05937 25.4009 8.30769 25.6397 8.37732 25.6978C8.66919 25.9415 9.26102 26.3173 9.69691 26.4998C9.84667 26.5617 10.0944 26.6504 10.0944 26.6504C10.0944 26.6504 10.076 25.945 10.0793 25.2502C10.0812 24.8836 10.0891 24.5207 10.0891 24.5207ZM16.7276 24.8015C16.7483 24.991 16.6996 25.3493 16.6911 25.3965C16.6757 25.5054 16.5936 25.7567 16.5799 25.7874C16.5136 25.9401 16.4483 26.0652 16.379 26.19C16.2603 26.4036 15.978 26.7424 15.8104 26.8873C15.1872 27.426 14.2225 27.7326 13.3948 27.8337C12.8332 27.9015 12.1879 27.8915 11.5929 27.7814C11.3881 27.7442 11.0833 27.674 11.0833 27.674C11.0833 27.674 11.0843 27.7958 11.0746 27.8815C11.0698 27.9206 11.0404 28.0235 11.0239 28.0569C10.9806 28.1462 10.9096 28.1923 10.8063 28.2122C10.6816 28.2353 10.5494 28.243 10.4342 28.1938C10.245 28.1142 10.1771 27.9372 10.1442 27.7332C10.1175 27.5699 10.0896 27.2862 10.0896 27.2862C10.0896 27.2862 9.94811 27.2192 9.83013 27.1603C9.46773 26.9817 9.12355 26.7654 8.82243 26.5429C8.73901 26.4806 8.38061 26.1805 8.30151 26.1059C8.07969 25.8954 7.88014 25.6859 7.72834 25.417C7.61032 25.207 7.57634 25.0206 7.6661 24.7981C7.78987 24.4879 8.23457 24.2544 8.53892 24.1213C8.7623 24.0227 9.45692 23.7959 9.74546 23.7538C9.88174 23.7343 10.0931 23.6965 10.1061 23.688C10.1114 23.684 10.1151 23.6805 10.119 23.6761C10.1256 23.6668 10.1368 23.3597 10.1347 23.2474C10.1319 23.137 10.2164 22.4117 10.2436 22.2583C10.2577 22.1754 10.3206 21.8561 10.3847 21.7723C10.4266 21.7156 10.5008 21.7202 10.5613 21.7574C10.8922 21.9632 10.9928 22.6768 11.0174 23.04C11.0321 23.2612 11.0394 23.594 11.0394 23.594C11.0394 23.594 11.4191 23.5828 11.6526 23.5894C11.8795 23.5947 12.1297 23.6305 12.3652 23.668C12.6668 23.7164 13.2546 23.8446 13.5917 24.0155C13.8693 24.1562 14.1291 24.3934 14.2133 24.6443C14.2915 24.8743 14.2798 25.0335 14.1607 25.2412C14.0267 25.4756 13.7734 25.6498 13.5165 25.6644C13.44 25.6688 13.1523 25.6306 13.0637 25.562C13.029 25.5347 13.0308 25.4854 13.0559 25.4519C13.0654 25.4402 13.1999 25.3687 13.2793 25.3269C13.3168 25.3069 13.3516 25.2823 13.3831 25.2537C13.449 25.1956 13.5084 25.1317 13.5017 25.0567C13.4926 24.9594 13.3897 24.8994 13.2916 24.8608C12.8312 24.678 11.9121 24.5262 11.468 24.4999C11.2941 24.4897 11.0468 24.4809 11.0468 24.4809L11.0991 26.9336C11.0991 26.9336 11.3035 26.9725 11.4647 26.9986C11.5571 27.0127 11.9488 27.0479 12.0529 27.0505C12.8455 27.0714 13.7301 27.0004 14.4574 26.6572C14.7767 26.5069 15.0697 26.3198 15.2915 26.0666C15.5838 25.7314 15.7369 25.2728 15.6964 24.7937C15.652 24.2705 15.2837 23.6494 14.9897 23.2713C14.2128 22.2721 12.8811 21.4503 11.7094 20.9684C10.5133 20.4768 9.3311 20.194 8.06164 20.1466C7.73438 20.1345 7.02083 20.151 6.66013 20.2508C6.60861 20.2653 6.55668 20.2827 6.50884 20.2934C6.47104 20.3027 6.41149 20.3277 6.39514 20.3409C6.38609 20.3482 6.37713 20.3584 6.37713 20.3584C6.37713 20.3584 6.39937 20.3707 6.42061 20.3797C6.45882 20.3963 6.61965 20.4063 6.70288 20.4216C6.77734 20.4356 6.85488 20.4747 6.88557 20.5292C6.91472 20.5811 6.91837 20.622 6.88352 20.6653C6.80179 20.7647 6.49418 20.7479 6.35873 20.7264C6.21796 20.704 6.0427 20.6609 6.01051 20.5384C5.97316 20.394 6.04174 20.2525 6.11582 20.1217C6.26465 19.86 6.47783 19.7239 6.79002 19.6386C7.23343 19.5166 7.79333 19.4313 8.21204 19.4153C9.15974 19.3795 10.0567 19.5452 10.9749 19.824C11.5004 19.9829 12.1885 20.2496 12.6922 20.4921C13.0536 20.6663 13.6231 20.9868 13.943 21.1963C14.0439 21.2629 14.6343 21.6967 14.726 21.7729C14.9173 21.9293 15.1675 22.1542 15.3488 22.334C15.6993 22.6814 16.1354 23.2139 16.3472 23.6366C16.3982 23.7378 16.4377 23.8374 16.5035 23.9547C16.5261 23.9949 16.6229 24.2353 16.6389 24.3047C16.6549 24.3734 16.6782 24.4744 16.6815 24.4784C16.6862 24.5153 16.7311 24.7218 16.7276 24.8015ZM28.6417 24.2592C28.1979 24.3615 27.0308 24.4183 27.0308 24.4183L26.8837 24.8793C26.8837 24.8793 27.4669 24.8295 27.8912 24.8738C27.8912 24.8738 28.0287 24.8579 28.0448 25.0299C28.0503 25.1903 28.0312 25.3625 28.0312 25.3625C28.0312 25.3625 28.0224 25.4667 27.8748 25.4932C27.7148 25.5198 26.6177 25.5622 26.6177 25.5622L26.44 26.1631C26.44 26.1631 26.374 26.302 26.522 26.2624C26.6595 26.2256 27.809 26.0099 27.9587 26.0409C28.1192 26.0808 28.2967 26.2947 28.2454 26.4896C28.1842 26.7312 27.0369 27.463 26.3382 27.4119C26.3382 27.4119 25.971 27.4356 25.6607 26.9401C25.3717 26.4679 25.7702 25.5738 25.7702 25.5738C25.7702 25.5738 25.5875 25.1565 25.7199 25.015C25.7199 25.015 25.7987 24.9435 26.0284 24.9273L26.3096 24.3456C26.3096 24.3456 25.9893 24.3676 25.7987 24.132C25.6212 23.9084 25.6063 23.8057 25.7424 23.7439C25.888 23.6721 27.2219 23.4286 28.1398 23.4595C28.1398 23.4595 28.4588 23.4282 28.7355 23.9815C28.7355 23.9815 28.8695 24.2053 28.6417 24.2592ZM25.1892 26.4961C25.0716 26.7728 24.7609 27.0681 24.3748 26.8846C23.9937 26.7006 23.3867 25.4583 23.3867 25.4583C23.3867 25.4583 23.1563 24.995 23.112 25.007C23.112 25.007 23.0622 24.9165 23.0317 25.4227C22.9999 25.9268 23.0378 26.9097 22.8367 27.0645C22.6462 27.2196 22.4156 27.1578 22.2959 26.9766C22.1872 26.798 22.142 26.3737 22.2013 25.6286C22.271 24.882 22.4445 24.0876 22.6661 23.8403C22.8873 23.5946 23.065 23.7729 23.1342 23.8376C23.1342 23.8376 23.4302 24.1059 23.9184 24.8937L24.0045 25.0394C24.0045 25.0394 24.4481 25.7837 24.4944 25.782C24.4944 25.782 24.5307 25.8162 24.563 25.7916C24.6095 25.7783 24.5908 25.5396 24.5908 25.5396C24.5908 25.5396 24.4987 24.7285 24.0941 23.3556C24.0941 23.3556 24.0329 23.1844 24.0743 23.024C24.1153 22.8619 24.2778 22.938 24.2778 22.938C24.2778 22.938 24.905 23.2533 25.2095 24.2745C25.5119 25.2959 25.3087 26.2173 25.1892 26.4961ZM31.9394 25.8845C31.6539 26.3827 30.8479 27.4257 29.7767 27.1795C29.423 28.0372 29.1259 28.905 28.9559 30.2034C28.9559 30.2034 28.9186 30.4557 28.7089 30.3681C28.5011 30.2953 28.1588 29.9498 28.0896 29.4718C28.0151 28.844 28.2946 27.7826 28.8659 26.5656C28.6992 26.2947 28.5856 25.9077 28.6829 25.3566C28.6829 25.3566 28.8264 24.3333 29.8541 23.411C29.8541 23.411 29.9773 23.3046 30.0487 23.3373C30.1274 23.3703 30.091 23.7033 30.0285 23.8652C29.9637 24.0262 29.5061 24.8183 29.5061 24.8183C29.5061 24.8183 29.2207 25.3534 29.3011 25.7755C29.8401 24.9468 31.0653 23.2757 31.8248 23.8027C32.0799 23.9852 32.1975 24.3823 32.1975 24.8101C32.1976 25.1858 32.107 25.5852 31.9394 25.8845ZM31.7178 24.5721C31.7178 24.5721 31.6755 24.2426 31.3534 24.6056C31.0763 24.9119 30.5766 25.4858 30.1744 26.2653C30.5964 26.2179 31.0035 25.9889 31.1266 25.8723C31.3267 25.6947 31.7929 25.2129 31.7178 24.5721ZM37.8401 24.4971H35.877C35.8379 23.8299 35.7573 23.1799 35.6307 22.5106C35.6245 22.4771 35.6067 22.4468 35.5805 22.4249C35.5544 22.4031 35.5214 22.3911 35.4873 22.3911H35.0347C35.0151 22.3911 34.9958 22.3955 34.9781 22.4039C34.9605 22.4123 34.9449 22.4245 34.9325 22.4396C34.92 22.4548 34.9109 22.4726 34.9061 22.4917C34.9012 22.5108 34.9006 22.5307 34.9044 22.5501C35.033 23.1978 35.1144 23.8353 35.1546 24.4977H33.266C33.178 24.4977 33.1065 24.569 33.1065 24.6567V25.0648C33.1065 25.1071 33.1234 25.1477 33.1533 25.1776C33.1832 25.2075 33.2237 25.2244 33.266 25.2245H35.1817C35.1829 25.3252 35.1839 25.4154 35.1839 25.5C35.1839 26.0883 35.1585 26.5729 35.0992 27.1198C35.0969 27.1406 35.099 27.1617 35.1056 27.1816C35.1121 27.2015 35.1228 27.2197 35.137 27.2351C35.1507 27.2506 35.1676 27.2629 35.1864 27.2714C35.2053 27.2798 35.2257 27.2842 35.2463 27.2842H35.6661C35.7055 27.2843 35.7435 27.2697 35.7728 27.2432C35.802 27.2167 35.8203 27.1803 35.8241 27.141C35.8814 26.5904 35.906 26.0998 35.906 25.5C35.906 25.4157 35.9051 25.3252 35.9039 25.2244H37.8401C37.9279 25.2244 37.9996 25.1526 37.9996 25.0648V24.6566C37.9995 24.6143 37.9827 24.5738 37.9528 24.5439C37.9229 24.514 37.8824 24.4972 37.8401 24.4971Z" fill="white"/>
<path d="M11.5908 19.0273C11.5771 19.0476 11.5683 19.0708 11.565 19.095C11.5618 19.1192 11.5643 19.1439 11.5722 19.167C11.5802 19.1902 11.5933 19.2112 11.6106 19.2286C11.6279 19.2459 11.6488 19.2591 11.672 19.2672L12.0239 19.3856C12.0443 19.3922 12.0656 19.3956 12.087 19.3957C12.1192 19.3958 12.1508 19.3879 12.1792 19.3728C12.2076 19.3578 12.2318 19.3359 12.2497 19.3092C13.4024 17.6159 14.9624 16.2059 16.7615 15.2319C18.6187 14.2261 20.723 13.6941 22.8474 13.6941C25.4134 13.6941 27.8892 14.451 30.0073 15.8829C32.074 17.2795 33.6791 19.2281 34.6491 21.518C34.6632 21.5515 34.6869 21.58 34.7171 21.6001C34.7474 21.6201 34.7829 21.6308 34.8192 21.6308H35.2395C35.2635 21.6307 35.287 21.6247 35.3082 21.6134C35.3294 21.6021 35.3474 21.5858 35.3608 21.5659C35.3743 21.546 35.3827 21.5231 35.3852 21.4992C35.3877 21.4753 35.3843 21.4511 35.3752 21.4288C34.375 18.9667 32.6837 16.8678 30.4835 15.3599C28.2311 13.8161 25.5906 13 22.8474 13C18.3124 13 14.1042 15.2533 11.5908 19.0273Z" fill="url(#paint0_linear_1079_2609)"/>
<defs>
<linearGradient id="paint0_linear_1079_2609" x1="35.7757" y1="18.6117" x2="12.0638" y2="15.4057" gradientUnits="userSpaceOnUse">
<stop stop-color="#B1FFFF"/>
<stop offset="0.25" stop-color="#058BBF"/>
<stop offset="0.541667" stop-color="#085AA4"/>
<stop offset="0.703125" stop-color="#0D267A"/>
<stop offset="1" stop-color="#101C50"/>
</linearGradient>
</defs>
</svg>
