<svg width="70" height="15" viewBox="0 0 70 15" fill="none" xmlns="http://www.w3.org/2000/svg">
<path d="M0.855469 0.605469H3.23828V15H0.855469V0.605469ZM9.25391 8.51562H4.03906V6.91406H9.25391V8.51562ZM9.85938 0.605469V2.38281H4.03906V0.605469H9.85938Z" fill="white"/>
<path d="M14.7617 15H12.3789V0.605469H14.7617V15Z" fill="white"/>
<path d="M26.3828 0.605469H28.7656V15H26.3828L21.5391 6.48438V1.99219L26.3828 10.5273V0.605469ZM18.3555 15V0.605469H20.7383V15H18.3555Z" fill="white"/>
<path d="M32.418 0.605469H34.7617V15H32.418V0.605469ZM36.7539 0.605469C37.9648 0.605469 39.026 0.800781 39.9375 1.19141C40.862 1.56901 41.6237 2.07682 42.2227 2.71484C42.8346 3.35286 43.2904 4.08203 43.5898 4.90234C43.8893 5.70964 44.0391 6.54297 44.0391 7.40234C44.0391 8.58724 43.9089 9.60286 43.6484 10.4492C43.401 11.2826 43.082 11.9857 42.6914 12.5586C42.3008 13.1185 41.8581 13.5612 41.3633 13.8867C40.8815 14.2122 40.4128 14.4596 39.957 14.6289C39.5013 14.7852 39.0846 14.8893 38.707 14.9414C38.3294 14.9805 38.0495 15 37.8672 15H35.5625V13.2812H37.0859C38.6745 13.2812 39.8203 12.7734 40.5234 11.7578C41.2266 10.7422 41.5781 9.27083 41.5781 7.34375C41.5781 6.74479 41.5065 6.15234 41.3633 5.56641C41.2201 4.98047 40.9401 4.45312 40.5234 3.98438C40.1198 3.5026 39.5664 3.11849 38.8633 2.83203C38.1602 2.53255 37.2487 2.38281 36.1289 2.38281H35.5625V0.605469H36.7539Z" fill="white"/>
<path d="M47.4375 0.605469H49.8203V15H47.4375V0.605469ZM55.8359 8.51562H50.6211V6.91406H55.8359V8.51562ZM50.6211 13.2227H56.4414V15H50.6211V13.2227ZM56.4414 0.605469V2.38281H50.6211V0.605469H56.4414Z" fill="white"/>
<path d="M59.6055 0.605469H61.9492V15H59.6055V0.605469ZM69.3711 15H66.8906L64.1758 9.78516C64.1367 9.78516 64.0911 9.79167 64.0391 9.80469C64 9.80469 63.9349 9.80469 63.8438 9.80469C63.7526 9.80469 63.6159 9.80469 63.4336 9.80469C63.2643 9.80469 63.0365 9.80469 62.75 9.80469V8.08594H64.0781C64.3646 8.08594 64.651 8.04036 64.9375 7.94922C65.224 7.84505 65.4844 7.68229 65.7188 7.46094C65.9531 7.23958 66.1419 6.93359 66.2852 6.54297C66.4284 6.13932 66.5 5.64453 66.5 5.05859C66.5 4.82422 66.4674 4.55729 66.4023 4.25781C66.3372 3.94531 66.2005 3.65234 65.9922 3.37891C65.7969 3.09245 65.5169 2.85807 65.1523 2.67578C64.7878 2.48047 64.306 2.38281 63.707 2.38281H62.75V0.605469H63.7461C64.3581 0.605469 64.9635 0.703125 65.5625 0.898438C66.1615 1.09375 66.6953 1.38672 67.1641 1.77734C67.6458 2.16797 68.0299 2.64323 68.3164 3.20312C68.6159 3.75 68.7656 4.36849 68.7656 5.05859C68.7656 6.10026 68.5247 6.98568 68.043 7.71484C67.5612 8.44401 66.9102 8.98438 66.0898 9.33594L69.3711 15Z" fill="white"/>
</svg>
