<svg width="64" height="65" viewBox="0 0 64 65" fill="none" xmlns="http://www.w3.org/2000/svg">
<path d="M25.3121 31.1962H22.1221V26.6526H20.0584V31.1962H16.7812V19.4742H20.0511V23.8509H22.1148V19.4742H25.3048L25.3121 31.1962ZM39.9468 31.247C43.2167 31.247 45.8835 28.5325 45.8835 25.2227C45.8835 21.8622 43.2167 19.2637 39.9468 19.2637C36.6332 19.2637 34.9619 21.6662 34.555 22.6461C34.555 21.1944 33.1017 19.4597 31.4159 19.4597H25.966V31.1962H31.038C33.1017 31.1962 34.555 29.4325 34.555 27.8865C35.0128 28.8446 36.6405 31.247 39.9468 31.247ZM30.6311 26.4856C31.1034 26.4856 31.4813 26.9429 31.4813 27.4655C31.4813 28.0099 31.1034 28.4744 30.6311 28.4744H29.0034V26.4856H30.6311ZM30.6311 22.0799C31.1034 22.0799 31.4813 22.5372 31.4813 23.0598C31.4813 23.5824 31.1034 24.0396 30.6311 24.0396H29.0034V22.0799H30.6311ZM32.782 25.2227C33.1599 25.2009 33.7775 24.7654 34.01 24.5042C33.9228 24.8163 33.9228 25.8106 34.01 26.13C33.7484 25.7453 33.1599 25.2953 32.782 25.2227ZM36.9675 25.2227C36.9675 23.5678 38.3118 22.2323 39.9686 22.2396C41.6326 22.2541 42.9551 23.6041 42.9333 25.2663C42.9115 26.8994 41.589 28.2131 39.9468 28.2131C38.2973 28.2204 36.9675 26.8848 36.9675 25.2227ZM39.9468 27.5744C41.2184 27.5744 42.2866 26.5292 42.2866 25.2227C42.2866 23.9162 41.2184 22.8856 39.9468 22.8856C38.6388 22.8856 37.5924 23.9162 37.5924 25.2227C37.5924 26.5292 38.6315 27.5744 39.9468 27.5744Z" fill="white"/>
<path d="M27.7704 36.5333C27.708 33.8252 25.7875 32.3952 23.4302 32.3952C22.1406 32.3952 20.9758 32.8235 20.1785 33.6664C19.3881 32.8304 18.2233 32.3952 16.9268 32.3952C14.5695 32.3952 12.649 33.8322 12.5866 36.5402V42.7302C12.5866 43.2966 13.0511 43.7526 13.6127 43.7526H14.5834C14.6804 43.7526 14.7567 43.6766 14.7567 43.5799V36.5541C14.7983 35.2207 15.7481 34.5161 16.9199 34.5161C18.0916 34.5161 19.0414 35.2207 19.083 36.5541V42.7233C19.083 43.2897 19.5476 43.7457 20.1092 43.7457H21.0798C21.1769 43.7457 21.2531 43.6697 21.2531 43.573V36.5472C21.2947 35.2138 22.2446 34.5092 23.4163 34.5092C24.588 34.5092 25.5379 35.2138 25.5795 36.5472V42.7163C25.5795 43.2828 26.044 43.7388 26.6056 43.7388H27.5763C27.6733 43.7388 27.7496 43.6628 27.7496 43.5661L27.7704 36.5333C27.7773 36.5472 27.7704 36.5402 27.7704 36.5333ZM49.6795 32.5748H48.0294C47.5718 32.5748 47.1489 32.8028 46.8854 33.1828L45.062 35.877C44.8193 36.2294 44.3062 36.2294 44.0636 35.877L42.2401 33.1828C41.9905 32.8028 41.5537 32.5748 41.0961 32.5748H39.446C39.342 32.5748 39.2865 32.6854 39.3351 32.7752L42.5937 37.5903C42.8294 37.9357 42.8294 38.3917 42.5937 38.7371L39.3351 43.5523C39.2727 43.6352 39.342 43.7526 39.446 43.7526H41.0961C41.5537 43.7526 41.9767 43.5246 42.2401 43.1447L44.0636 40.4504C44.3062 40.0981 44.8193 40.0981 45.062 40.4504L46.8854 43.1447C47.135 43.5246 47.5718 43.7526 48.0294 43.7526H49.6795C49.7835 43.7526 49.839 43.6421 49.7904 43.5523L46.5318 38.744C46.2961 38.3986 46.2961 37.9426 46.5318 37.5972L49.7904 32.7821C49.839 32.6923 49.7766 32.5748 49.6795 32.5748ZM38.5863 32.5748H37.6156C37.1234 32.5748 36.7074 32.9203 36.6034 33.3831C35.7367 32.7199 34.6551 32.3883 33.4834 32.3883C30.6338 32.3883 28.3251 34.3641 28.3251 38.0946C28.3251 41.8252 30.6338 43.801 33.4834 43.801C34.6482 43.801 35.7229 43.4694 36.5895 42.8269C36.638 43.345 37.0748 43.7595 37.6156 43.7595H38.5863C38.6834 43.7595 38.7596 43.6835 38.7596 43.5868V32.7475C38.7527 32.6508 38.6834 32.5748 38.5863 32.5748ZM33.4834 41.6801C31.7848 41.6801 30.405 40.4435 30.405 38.1015C30.405 35.7596 31.7848 34.523 33.4834 34.523C35.1821 34.523 36.5618 35.7596 36.5618 38.1015C36.5618 40.4435 35.1821 41.6801 33.4834 41.6801Z" fill="url(#paint0_linear_124_135)"/>
<defs>
<linearGradient id="paint0_linear_124_135" x1="12.5964" y1="38.0924" x2="49.8058" y2="38.0924" gradientUnits="userSpaceOnUse">
<stop stop-color="#991EEB"/>
<stop offset="0.399" stop-color="#5822B4"/>
<stop offset="0.727" stop-color="#5822B4"/>
<stop offset="1" stop-color="#991EEB"/>
</linearGradient>
</defs>
</svg>
