<svg width="44" height="44" viewBox="0 0 44 44" fill="none" xmlns="http://www.w3.org/2000/svg">
<rect width="44" height="44" rx="5" fill="black" fill-opacity="0.2"/>
<path fill-rule="evenodd" clip-rule="evenodd" d="M15.8341 27.954H12.9024V23.9651H11.0039V27.954H8V17.6605H11.0039V21.5005H12.9024V17.6605H15.8341V27.954ZM29.2794 28C32.2832 28 34.7343 25.6158 34.7343 22.7155C34.7343 19.7696 32.2834 17.4886 29.2794 17.4886C26.2395 17.4886 24.7015 19.5976 24.3291 20.4574C24.3291 19.185 22.9952 17.6605 21.4453 17.6605H16.4349V27.954H21.097C22.9952 27.954 24.3291 26.4065 24.3291 25.0539C24.7494 25.8907 26.2395 28 29.2794 28ZM20.7244 23.8159C21.1569 23.8159 21.5054 24.217 21.5054 24.6757C21.5054 25.1571 21.1568 25.5583 20.7244 25.5583H19.2345V23.8159H20.7244ZM20.7244 19.953C21.1569 19.953 21.5054 20.3542 21.5054 20.8128C21.5054 21.2714 21.1568 21.6725 20.7244 21.6725H19.2345V19.953H20.7244ZM22.6949 22.7155C23.0434 22.6927 23.6082 22.3144 23.8244 22.0852C23.7402 22.3603 23.7402 23.2314 23.8244 23.5066C23.5839 23.174 23.0434 22.7729 22.6949 22.7155ZM26.5396 22.7155C26.5396 21.2713 27.7655 20.1021 29.2792 20.1021C30.7929 20.1021 32.0185 21.2713 32.0185 22.7155C32.0185 24.1713 30.7929 25.3407 29.2792 25.3407C27.7655 25.3407 26.5396 24.1713 26.5396 22.7155ZM29.2794 24.779C30.4448 24.779 31.4302 23.8619 31.4302 22.7155C31.4302 21.5694 30.4448 20.6637 29.2794 20.6637C28.0778 20.6637 27.1164 21.5694 27.1164 22.7155C27.1152 22.9868 27.1704 23.2557 27.2786 23.5065C27.3869 23.7574 27.5462 23.9853 27.7473 24.1772C27.9484 24.369 28.1873 24.521 28.4502 24.6243C28.7132 24.7275 28.995 24.7801 29.2794 24.779ZM33.4709 17.7983C33.4709 17.4203 33.7692 17.1342 34.1537 17.1342C34.532 17.1342 34.8317 17.4203 34.8317 17.7983C34.8317 18.1836 34.5318 18.4677 34.1537 18.4677C33.7692 18.4677 33.4709 18.1836 33.4709 17.7983ZM34.1537 18.6001C34.61 18.6001 35 18.2616 35 17.7983C35 17.3386 34.61 17 34.1537 17C33.6921 17 33.3015 17.3386 33.3015 17.7983C33.3015 18.2615 33.6921 18.6001 34.1537 18.6001ZM33.9756 17.8614H34.1443L34.3995 18.2615H34.564L34.289 17.8552C34.4303 17.8387 34.5399 17.7667 34.5399 17.6009C34.5399 17.4203 34.4265 17.3386 34.1976 17.3386H33.8296V18.2615H33.9756V17.8614ZM33.9756 17.7431V17.4582H34.1751C34.2775 17.4582 34.3863 17.4783 34.3863 17.5931C34.3863 17.7352 34.2752 17.7431 34.151 17.7431H33.9756Z" fill="#3382C3"/>
</svg>
