<svg width="44" height="44" viewBox="0 0 44 44" fill="none" xmlns="http://www.w3.org/2000/svg">
<rect width="44" height="44" rx="5" fill="black" fill-opacity="0.2"/>
<path d="M17.5369 21.2671H15.3268V18.1192H13.897V21.2671H11.6265V13.1458H13.8919V16.1781H15.3217V13.1458H17.5318L17.5369 21.2671ZM27.6761 21.3023C29.9416 21.3023 31.7893 19.4216 31.7893 17.1285C31.7893 14.8003 29.9416 13 27.6761 13C25.3805 13 24.2225 14.6645 23.9406 15.3434C23.9406 14.3376 22.9337 13.1358 21.7658 13.1358H17.99V21.2671H21.504C22.9337 21.2671 23.9406 20.0452 23.9406 18.9741C24.2578 19.6378 25.3855 21.3023 27.6761 21.3023ZM21.222 18.0035C21.5493 18.0035 21.8111 18.3203 21.8111 18.6824C21.8111 19.0595 21.5493 19.3814 21.222 19.3814H20.0943V18.0035H21.222ZM21.222 14.9511C21.5493 14.9511 21.8111 15.2679 21.8111 15.63C21.8111 15.9921 21.5493 16.3089 21.222 16.3089H20.0943V14.9511H21.222ZM22.7122 17.1285C22.974 17.1134 23.4019 16.8117 23.563 16.6307C23.5026 16.8469 23.5026 17.5359 23.563 17.7571C23.3818 17.4906 22.974 17.1788 22.7122 17.1285ZM25.612 17.1285C25.612 15.982 26.5434 15.0567 27.6913 15.0618C28.8441 15.0718 29.7604 16.0071 29.7453 17.1587C29.7302 18.2902 28.8139 19.2003 27.6761 19.2003C26.5333 19.2054 25.612 18.2801 25.612 17.1285ZM27.6761 18.7578C28.5572 18.7578 29.2972 18.0337 29.2972 17.1285C29.2972 16.2234 28.5572 15.5093 27.6761 15.5093C26.77 15.5093 26.045 16.2234 26.045 17.1285C26.045 18.0337 26.7649 18.7578 27.6761 18.7578Z" fill="white"/>
<path d="M19.24 24.9648C19.1967 23.0886 17.8661 22.0978 16.2329 22.0978C15.3395 22.0978 14.5325 22.3946 13.9801 22.9785C13.4325 22.3993 12.6255 22.0978 11.7272 22.0978C10.094 22.0978 8.76345 23.0934 8.72021 24.9696V29.2581C8.72021 29.6506 9.04205 29.9665 9.43114 29.9665H10.1036C10.1709 29.9665 10.2237 29.9138 10.2237 29.8468V24.9792C10.2525 24.0554 10.9106 23.5672 11.7224 23.5672C12.5342 23.5672 13.1923 24.0554 13.2211 24.9792V29.2533C13.2211 29.6458 13.543 29.9617 13.9321 29.9617H14.6045C14.6718 29.9617 14.7246 29.9091 14.7246 29.842V24.9744C14.7535 24.0506 15.4115 23.5624 16.2233 23.5624C17.0351 23.5624 17.6932 24.0506 17.722 24.9744V29.2485C17.722 29.641 18.0439 29.9569 18.433 29.9569H19.1055C19.1727 29.9569 19.2255 29.9043 19.2255 29.8373L19.24 24.9648C19.2448 24.9744 19.24 24.9696 19.24 24.9648ZM34.4191 22.2222H33.2759C32.9589 22.2222 32.6658 22.3802 32.4833 22.6434L31.22 24.5101C31.0519 24.7542 30.6964 24.7542 30.5283 24.5101L29.2649 22.6434C29.092 22.3802 28.7894 22.2222 28.4724 22.2222H27.3291C27.2571 22.2222 27.2186 22.2988 27.2523 22.3611L29.5099 25.6971C29.6732 25.9364 29.6732 26.2523 29.5099 26.4916L27.2523 29.8277C27.209 29.8851 27.2571 29.9665 27.3291 29.9665H28.4724C28.7894 29.9665 29.0824 29.8085 29.2649 29.5453L30.5283 27.6786C30.6964 27.4345 31.0519 27.4345 31.22 27.6786L32.4833 29.5453C32.6562 29.8085 32.9589 29.9665 33.2759 29.9665H34.4191C34.4912 29.9665 34.5296 29.8899 34.496 29.8277L32.2383 26.4964C32.075 26.2571 32.075 25.9412 32.2383 25.7019L34.496 22.3658C34.5296 22.3036 34.4864 22.2222 34.4191 22.2222ZM26.7335 22.2222H26.061C25.7199 22.2222 25.4317 22.4616 25.3597 22.7822C24.7592 22.3228 24.0099 22.093 23.1981 22.093C21.2238 22.093 19.6242 23.4619 19.6242 26.0465C19.6242 28.6311 21.2238 30 23.1981 30C24.0051 30 24.7496 29.7703 25.3501 29.3251C25.3837 29.6841 25.6863 29.9713 26.061 29.9713H26.7335C26.8007 29.9713 26.8536 29.9186 26.8536 29.8516V22.3419C26.8488 22.2749 26.8007 22.2222 26.7335 22.2222ZM23.1981 28.5306C22.0212 28.5306 21.0653 27.6738 21.0653 26.0513C21.0653 24.4287 22.0212 23.572 23.1981 23.572C24.3749 23.572 25.3308 24.4287 25.3308 26.0513C25.3308 27.6738 24.3749 28.5306 23.1981 28.5306Z" fill="url(#paint0_linear_11_19)"/>
<defs>
<linearGradient id="paint0_linear_11_19" x1="8.72699" y1="26.0449" x2="34.5067" y2="26.0449" gradientUnits="userSpaceOnUse">
<stop stop-color="#991EEB"/>
<stop offset="0.399" stop-color="#5822B4"/>
<stop offset="0.727" stop-color="#5822B4"/>
<stop offset="1" stop-color="#991EEB"/>
</linearGradient>
</defs>
</svg>
