<svg width="44" height="44" viewBox="0 0 44 44" fill="none" xmlns="http://www.w3.org/2000/svg">
<rect width="44" height="44" rx="5" fill="black" fill-opacity="0.2"/>
<path d="M20.17 23.46L20.16 28.52C20.16 33.33 20.15 33.6 20.1 33.6C19.92 33.6 18.4 33.7 17.89 33.75C17.56 33.78 16.89 33.85 16.41 33.91C15.92 33.97 15.52 34.01 15.51 34C15.51 33.99 15.5 28.59 15.5 21.99V10L20.17 23.46ZM28.49 10.01H23.86L23.85 15.32V20.649L28.48 33.99C28.5 33.98 28.5 28.57 28.5 21.98L28.49 10.01Z" fill="#AD080F"/>
<path d="M28.48 33.99H28.44C28.36 33.99 28.2 33.98 28.01 33.96C26.94 33.83 25.53 33.7 24.39 33.65C24.02 33.63 23.71 33.61 23.7 33.61C23.7 33.61 23.41 32.77 22.86 31.2C22.33 29.67 21.55 27.43 20.54 24.52L20.17 23.46L15.5 10H20.15L20.35 10.57L21.23 13.1L28.48 33.99Z" fill="#DF0D12"/>
</svg>
