<svg width="64" height="65" viewBox="0 0 64 65" fill="none" xmlns="http://www.w3.org/2000/svg">
<path d="M29.1127 34.3614L29.0982 41.6648C29.0982 48.6074 29.0838 48.9971 29.0116 48.9971C28.7518 48.9971 26.5579 49.1414 25.8218 49.2136C25.3455 49.2569 24.3784 49.3579 23.6856 49.4445C22.9784 49.5311 22.401 49.5889 22.3866 49.5744C22.3866 49.56 22.3722 41.7658 22.3722 32.2396V14.9337L29.1127 34.3614ZM41.1215 14.9481H34.4387L34.4243 22.6124V30.3041L41.107 49.56C41.1359 49.5456 41.1359 41.7369 41.1359 32.2252L41.1215 14.9481Z" fill="#AD080F"/>
<path d="M41.107 49.56H41.0493C40.9338 49.56 40.7029 49.5456 40.4287 49.5167C38.8843 49.329 36.8491 49.1414 35.2037 49.0692C34.6696 49.0404 34.2222 49.0115 34.2078 49.0115C34.2078 49.0115 33.7892 47.7991 32.9953 45.533C32.2303 43.3246 31.1045 40.0915 29.6467 35.8913L29.1127 34.3614L22.3722 14.9337H29.0838L29.3725 15.7564L30.6426 19.4081L41.107 49.56Z" fill="#DF0D12"/>
</svg>
