<svg width="63" height="65" viewBox="0 0 63 65" fill="none" xmlns="http://www.w3.org/2000/svg">
<path d="M27.6126 40.1786C27.4651 40.112 27.2194 39.8456 27.629 39.0798L28.5465 37.1153C28.5792 37.0487 28.5137 36.9821 28.4646 37.0321L27.6618 37.8645C27.2849 38.264 26.6296 39.4128 26.4985 39.6292L25.5155 41.2774C25.6138 41.2774 25.6793 41.3939 25.6302 41.4771L24.729 43.0088C24.516 43.3917 24.9093 43.6581 24.9584 43.5748C26.3674 41.2607 27.1866 41.4438 27.1866 41.4438L27.6618 40.3284C27.7109 40.2618 27.6781 40.1952 27.6126 40.1786Z" fill="#0164FF"/>
<path d="M30.8237 20.8501C22.7465 20.8501 16.1929 27.5094 16.1929 35.7169C16.1929 39.0299 17.2579 42.0765 19.0437 44.5404C19.6499 44.274 19.994 43.8745 20.2397 43.5582L22.9595 40.0121C23.025 39.9455 23.0905 39.8789 23.1725 39.8456L23.5821 39.6625L28.0549 33.8856L28.7102 33.3695L30.0373 31.4883C30.0701 31.4383 30.1192 31.3884 30.1684 31.3551L30.7582 30.9222C30.9057 30.8223 31.1023 30.8057 31.2497 30.9222L31.9542 31.4217C32.3311 31.688 32.626 32.0377 32.839 32.4539L35.6734 37.4982C35.7389 37.6148 35.7881 37.6647 35.9027 37.7147C36.4598 37.9977 36.7875 38.0476 37.5247 38.8467C37.8688 39.2297 39.3434 40.9111 41.4241 43.5249C41.719 43.9244 42.0795 44.2574 42.6038 44.4905C44.3896 42.0265 45.4545 38.9799 45.4545 35.6836C45.4545 27.5094 38.901 20.8501 30.8237 20.8501ZM20.1414 36.516L19.1912 36.1997L18.6013 37.0155V35.9999L17.6511 35.6836L18.6013 35.3673V34.3517L19.1912 35.1675L20.1414 34.8512L19.5516 35.667L20.1414 36.516ZM19.9284 39.8456L19.6171 40.8112L19.3059 39.8456H18.3064L19.1093 39.2463L18.798 38.2807L19.6008 38.88L20.4036 38.2807L20.0923 39.2463L20.8951 39.8456H19.9284ZM20.1087 32.1708L20.42 33.1364L19.6171 32.5371L18.8143 33.1364L19.1256 32.1708L18.3228 31.5715H19.3222L19.6335 30.6059L19.9448 31.5715H20.9442L20.1087 32.1708ZM21.7143 29.9899L21.1245 29.1742L20.1742 29.4905L20.764 28.6747L20.1742 27.859L21.1245 28.1753L21.7143 27.3595V28.3751L22.6646 28.6914L21.7143 29.0077V29.9899ZM24.2046 26.4439L23.8933 27.4095L23.5821 26.4439H22.5826L23.3854 25.8445L23.0742 24.879L23.877 25.4783L24.6798 24.879L24.3685 25.8445L25.1713 26.4439H24.2046ZM27.3503 24.829L26.7605 25.6448V24.6292L25.8103 24.3129L26.7605 23.9966V22.9977L27.3503 23.8135L28.3006 23.4972L27.7108 24.3129L28.3006 25.1287L27.3503 24.829ZM31.3316 23.8801L31.6429 24.8457L30.8401 24.2463L30.0373 24.8457L30.3486 23.8801L29.5458 23.2807H30.5452L30.8565 22.3151L31.1678 23.2807H32.1672L31.3316 23.8801ZM34.9033 24.6292V25.6448L34.3135 24.829L33.3632 25.1453L33.9531 24.3296L33.3632 23.5138L34.3135 23.8301L34.9033 23.0144V24.0299L35.8536 24.3462L34.9033 24.6292ZM41.506 34.8678L42.4563 35.1842L43.0461 34.3684V35.3839L43.9964 35.7002L43.0461 36.0166V37.0321L42.4563 36.2163L41.506 36.5327L42.0959 35.7169L41.506 34.8678ZM37.7541 27.4095L37.4428 26.4439H36.4434L37.2462 25.8445L36.9349 24.879L37.7377 25.4783L38.5405 24.879L38.2293 25.8445L39.0321 26.4439H38.0654L37.7541 27.4095ZM39.9496 29.9899V28.991L38.9993 28.6747L39.9496 28.3584V27.3429L40.5394 28.1586L41.4896 27.8423L40.8998 28.6581L41.4896 29.4738L40.5394 29.1575L39.9496 29.9899ZM41.7354 31.5715L42.0467 30.6059L42.358 31.5715H43.3574L42.5546 32.1708L42.8659 33.1364L42.0631 32.5371L41.2603 33.1364L41.5716 32.1708L40.7688 31.5715H41.7354ZM42.358 39.8456L42.0467 40.8112L41.7354 39.8456H40.736L41.5388 39.2463L41.2275 38.2807L42.0303 38.88L42.8331 38.2807L42.5218 39.2463L43.3246 39.8456H42.358Z" fill="#0164FF"/>
<path d="M36.132 44.3074C36.1975 44.2075 36.3122 43.9244 36.0992 43.3917L35.4603 41.627C35.3783 41.3939 35.5586 41.2607 35.6896 41.4106C35.6896 41.4106 36.9184 42.8423 37.2297 43.4416L37.8359 44.4572C38.3602 44.4905 39.7856 44.5404 41.1618 44.5404C41.0308 44.4072 40.8997 44.2574 40.7686 44.0909C38.4094 41.1276 36.9184 39.4794 36.9184 39.4627C36.4433 38.93 36.2139 38.8301 35.8535 38.6636C35.8043 38.647 35.7388 38.6137 35.6896 38.5804V39.0299C35.6896 39.0965 35.6241 39.1131 35.5913 39.0632L32.1343 32.8867L32.1179 32.8701C31.9705 32.5871 31.7575 32.3373 31.4954 32.1376L31.1513 31.9045L29.4965 35.7669C29.7587 35.7669 29.9225 36.0332 29.8242 36.2663L28.3005 39.8456H29.6931C30.2338 39.8456 30.7745 39.9455 31.266 40.162L31.6264 40.3118C31.6264 40.3118 30.5123 42.6425 30.5123 43.8578C30.5123 44.0743 30.5451 44.3073 30.6106 44.5238H33.1665L33.0518 43.7913C33.0846 43.7746 34.6247 44.1575 36.132 44.3074Z" fill="#0164FF"/>
</svg>
