<svg width="44" height="44" viewBox="0 0 44 44" fill="none" xmlns="http://www.w3.org/2000/svg">
<rect width="44" height="44" rx="5" fill="black" fill-opacity="0.2"/>
<path d="M19.4395 27.4903C19.3357 27.4442 19.1626 27.2597 19.451 26.7291L20.0969 25.368C20.12 25.3219 20.0738 25.2758 20.0392 25.3104L19.4741 25.8871C19.2088 26.1639 18.7474 26.9598 18.6551 27.1097L17.9631 28.2516C18.0323 28.2516 18.0784 28.3323 18.0438 28.39L17.4094 29.4512C17.2595 29.7164 17.5363 29.901 17.5709 29.8433C18.5629 28.2401 19.1396 28.3669 19.1396 28.3669L19.4741 27.5941C19.5087 27.548 19.4856 27.5019 19.4395 27.4903Z" fill="#0164FF"/>
<path d="M21.7 14.0991C16.0136 14.0991 11.3999 18.7128 11.3999 24.3992C11.3999 26.6945 12.1496 28.8052 13.4069 30.5123C13.8336 30.3278 14.0759 30.0509 14.2489 29.8318L16.1636 27.375C16.2097 27.3289 16.2558 27.2827 16.3135 27.2597L16.6019 27.1328L19.7507 23.1304L20.2121 22.7728L21.1464 21.4695C21.1694 21.4349 21.204 21.4002 21.2386 21.3772L21.6539 21.0773C21.7577 21.0081 21.8961 20.9965 21.9999 21.0773L22.4959 21.4233C22.7612 21.6079 22.9688 21.8501 23.1187 22.1384L25.1141 25.6333C25.1603 25.7141 25.1949 25.7487 25.2756 25.7833C25.6678 25.9793 25.8985 26.014 26.4175 26.5676C26.6597 26.8329 27.6978 27.9978 29.1627 29.8087C29.3703 30.0855 29.624 30.3162 29.9931 30.4777C31.2504 28.7706 32.0001 26.6599 32.0001 24.3761C32.0001 18.7128 27.3864 14.0991 21.7 14.0991ZM14.1797 24.9528L13.5107 24.7336L13.0954 25.2988V24.5952L12.4265 24.3761L13.0954 24.1569V23.4533L13.5107 24.0185L14.1797 23.7994L13.7644 24.3646L14.1797 24.9528ZM14.0297 27.2597L13.8106 27.9286L13.5914 27.2597H12.8878L13.453 26.8444L13.2338 26.1754L13.799 26.5907L14.3642 26.1754L14.1451 26.8444L14.7102 27.2597H14.0297ZM14.1566 21.9424L14.3757 22.6113L13.8106 22.1961L13.2454 22.6113L13.4645 21.9424L12.8994 21.5271H13.6029L13.8221 20.8581L14.0412 21.5271H14.7448L14.1566 21.9424ZM15.2869 20.4314L14.8717 19.8662L14.2027 20.0853L14.618 19.5202L14.2027 18.955L14.8717 19.1741L15.2869 18.609V19.3125L15.9559 19.5317L15.2869 19.7508V20.4314ZM17.0402 17.9746L16.821 18.6436L16.6019 17.9746H15.8983L16.4634 17.5593L16.2443 16.8904L16.8095 17.3056L17.3746 16.8904L17.1555 17.5593L17.7207 17.9746H17.0402ZM19.2547 16.8557L18.8395 17.4209V16.7173L18.1705 16.4982L18.8395 16.279V15.587L19.2547 16.1522L19.9237 15.933L19.5085 16.4982L19.9237 17.0634L19.2547 16.8557ZM22.0576 16.1983L22.2767 16.8673L21.7115 16.452L21.1464 16.8673L21.3655 16.1983L20.8003 15.7831H21.5039L21.7231 15.1141L21.9422 15.7831H22.6458L22.0576 16.1983ZM24.572 16.7173V17.4209L24.1568 16.8557L23.4878 17.0749L23.903 16.5097L23.4878 15.9445L24.1568 16.1637L24.572 15.5985V16.3021L25.241 16.5213L24.572 16.7173ZM29.2203 23.8109L29.8893 24.0301L30.3046 23.4649V24.1685L30.9735 24.3876L30.3046 24.6068V25.3104L29.8893 24.7452L29.2203 24.9643L29.6356 24.3992L29.2203 23.8109ZM26.579 18.6436L26.3598 17.9746H25.6562L26.2214 17.5593L26.0023 16.8904L26.5675 17.3056L27.1326 16.8904L26.9135 17.5593L27.4787 17.9746H26.7981L26.579 18.6436ZM28.1246 20.4314V19.7393L27.4556 19.5202L28.1246 19.301V18.5974L28.5398 19.1626L29.2088 18.9434L28.7936 19.5086L29.2088 20.0738L28.5398 19.8547L28.1246 20.4314ZM29.3818 21.5271L29.601 20.8581L29.8201 21.5271H30.5237L29.9585 21.9424L30.1777 22.6113L29.6125 22.1961L29.0473 22.6113L29.2665 21.9424L28.7013 21.5271H29.3818ZM29.8201 27.2597L29.601 27.9286L29.3818 27.2597H28.6782L29.2434 26.8444L29.0243 26.1754L29.5894 26.5907L30.1546 26.1754L29.9355 26.8444L30.5006 27.2597H29.8201Z" fill="#0164FF"/>
<path d="M25.437 30.3508C25.4831 30.2816 25.5638 30.0855 25.4139 29.7165L24.9641 28.4938C24.9064 28.3323 25.0333 28.2401 25.1255 28.3439C25.1255 28.3439 25.9906 29.3358 26.2098 29.7511L26.6365 30.4546C27.0056 30.4777 28.0091 30.5123 28.978 30.5123C28.8857 30.42 28.7934 30.3162 28.7012 30.2009C27.0402 28.1478 25.9906 27.0059 25.9906 26.9944C25.6561 26.6253 25.4946 26.5561 25.2409 26.4407C25.2063 26.4292 25.1601 26.4061 25.1255 26.3831V26.6945C25.1255 26.7406 25.0794 26.7521 25.0563 26.7175L22.6226 22.4383L22.6111 22.4268C22.5073 22.2307 22.3573 22.0577 22.1728 21.9193L21.9305 21.7578L20.7656 24.4338C20.9501 24.4338 21.0655 24.6183 20.9963 24.7798L19.9236 27.2597H20.904C21.2846 27.2597 21.6653 27.3289 22.0113 27.4788L22.265 27.5826C22.265 27.5826 21.4807 29.1974 21.4807 30.0394C21.4807 30.1894 21.5038 30.3508 21.5499 30.5008H23.3493L23.2685 29.9933C23.2916 29.9817 24.3758 30.247 25.437 30.3508Z" fill="#0164FF"/>
</svg>
