<svg width="44" height="44" viewBox="0 0 44 44" fill="none" xmlns="http://www.w3.org/2000/svg">
<rect width="44" height="44" rx="5" fill="black" fill-opacity="0.2"/>
<path d="M21.845 27.0002V26.9832C21.862 26.962 21.8917 26.9493 21.9172 26.9535C22.0404 26.9493 22.1594 26.9493 22.2826 26.9535C22.308 26.9535 22.3378 26.962 22.3548 26.9832V27.0002H21.845Z" fill="#D1EFFA"/>
<path d="M22.3546 26.9832C22.1847 26.979 22.0148 26.979 21.8448 26.9832C21.6112 26.9705 21.3775 26.962 21.1439 26.945C20.5236 26.8983 19.9076 26.8048 19.3043 26.6646C17.2183 26.1803 15.3873 25.2074 13.7899 23.7927C13.6412 23.661 13.501 23.525 13.3566 23.3891C13.3226 23.3594 13.2928 23.3169 13.2758 23.2744C13.2503 23.2149 13.2631 23.1512 13.3056 23.1045C13.3481 23.0577 13.416 23.0407 13.4755 23.0662C13.5137 23.0832 13.552 23.1002 13.586 23.1214C15.1111 24.0646 16.7765 24.7528 18.5226 25.1607C19.1089 25.2966 19.6994 25.4028 20.2942 25.4793C21.1481 25.5855 22.0105 25.6238 22.8687 25.594C23.3318 25.5813 23.7906 25.5388 24.2494 25.4793C25.32 25.3434 26.3779 25.1012 27.4017 24.7613C27.9413 24.5829 28.4681 24.379 28.9821 24.1411C29.0586 24.0986 29.1521 24.0858 29.237 24.1071C29.3772 24.1411 29.4622 24.2855 29.4282 24.4257C29.424 24.4427 29.4155 24.4639 29.407 24.4809C29.373 24.5447 29.3263 24.5999 29.2668 24.6424C28.7782 25.0247 28.2514 25.3604 27.6949 25.6407C26.6455 26.1718 25.5239 26.5499 24.3684 26.7666C23.7014 26.8855 23.0301 26.9577 22.3546 26.9832ZM16.0628 18.3717C16.169 18.308 16.2795 18.24 16.3942 18.1806C16.6915 18.0276 17.0229 17.9512 17.3585 17.9682C17.6007 17.9809 17.8216 18.0489 17.9916 18.2273C18.153 18.393 18.2125 18.5969 18.2295 18.8178C18.2337 18.8646 18.2337 18.9113 18.2337 18.9623V21.1629C18.2337 21.3541 18.2082 21.3796 18.017 21.3796H17.4987C17.4648 21.3796 17.4308 21.3796 17.3968 21.3754C17.3458 21.3711 17.3033 21.3286 17.2948 21.2776C17.2863 21.2309 17.2863 21.1842 17.2863 21.1375V19.1704C17.2906 19.0897 17.2821 19.0133 17.2608 18.9368C17.2268 18.8051 17.1079 18.7116 16.9719 18.7031C16.7213 18.6861 16.4706 18.7371 16.2412 18.8433C16.2072 18.8518 16.186 18.8858 16.1902 18.9198V21.1544C16.1902 21.1969 16.1902 21.2352 16.1817 21.2776C16.1817 21.3371 16.135 21.3796 16.0755 21.3796C16.0118 21.3839 15.9481 21.3839 15.8801 21.3839H15.4298C15.2726 21.3839 15.2386 21.3456 15.2386 21.1884V19.1789C15.2386 19.1067 15.2343 19.0302 15.2174 18.958C15.1876 18.8136 15.0644 18.7116 14.92 18.7031C14.6651 18.6861 14.4059 18.7371 14.1765 18.8476C14.1425 18.8561 14.1213 18.8943 14.1298 18.9283V21.1927C14.1298 21.3499 14.0958 21.3839 13.9386 21.3839H13.3693C13.2206 21.3839 13.1824 21.3414 13.1824 21.1969V18.2485C13.1824 18.2146 13.1866 18.1806 13.1951 18.1466C13.2121 18.0956 13.2631 18.0659 13.3141 18.0659H13.8451C13.9216 18.0659 13.9683 18.1126 13.9938 18.1848C14.0151 18.2443 14.0278 18.2995 14.049 18.3633C14.0915 18.3633 14.117 18.3335 14.1468 18.3165C14.3804 18.1721 14.6268 18.0489 14.903 17.9979C15.1154 17.9554 15.3278 17.9554 15.5402 17.9979C15.7399 18.0404 15.9183 18.1593 16.033 18.3293C16.0415 18.342 16.05 18.3505 16.0585 18.359C16.0543 18.3633 16.0585 18.3633 16.0628 18.3717Z" fill="white"/>
<path d="M24.8697 20.4874C24.8952 20.4024 24.9207 20.3217 24.9462 20.2368C25.1416 19.5783 25.337 18.924 25.5325 18.2655L25.5579 18.189C25.5792 18.1126 25.6514 18.0658 25.7279 18.0658H26.3736C26.5351 18.0658 26.5691 18.1126 26.5138 18.2655L26.2589 18.941C25.9743 19.6802 25.6896 20.4237 25.405 21.1629C25.3965 21.1884 25.3838 21.2139 25.3753 21.2394C25.3455 21.3286 25.2563 21.3881 25.1628 21.3796C24.9759 21.3753 24.789 21.3753 24.6021 21.3796C24.4704 21.3838 24.3939 21.3243 24.3472 21.2054C24.2409 20.925 24.1305 20.6404 24.0243 20.36C23.7694 19.693 23.5102 19.026 23.2553 18.3547C23.2298 18.3037 23.2128 18.2443 23.2001 18.189C23.1873 18.1041 23.2171 18.0616 23.3021 18.0616C23.5442 18.0573 23.7864 18.0616 24.0243 18.0616C24.1262 18.0616 24.173 18.1296 24.1985 18.2188C24.2452 18.3802 24.2919 18.5459 24.3429 18.7073C24.5171 19.2979 24.687 19.8926 24.8612 20.4832C24.857 20.4874 24.8612 20.4874 24.8697 20.4874Z" fill="white"/>
<path d="M9.78362 18.5332C9.81336 18.5247 9.83885 18.5077 9.85584 18.4822C9.93231 18.4058 10.013 18.3335 10.098 18.2656C10.3189 18.0956 10.5951 18.0107 10.8712 18.0319C10.9817 18.0361 11.0199 18.0701 11.0284 18.1763C11.0369 18.3208 11.0326 18.4695 11.0326 18.6139C11.0369 18.6734 11.0326 18.7286 11.0241 18.7881C11.0072 18.8646 10.9774 18.8943 10.9009 18.9028C10.8415 18.9071 10.7862 18.9028 10.7268 18.8986C10.4421 18.8731 10.166 18.9283 9.89832 19.0175C9.83885 19.0388 9.83885 19.0812 9.83885 19.128V21.1672C9.83885 21.2054 9.83885 21.2394 9.8346 21.2777C9.83035 21.3329 9.78787 21.3754 9.73264 21.3754C9.7029 21.3796 9.66891 21.3796 9.63917 21.3796H9.08688C9.05714 21.3796 9.02316 21.3796 8.99342 21.3754C8.93819 21.3711 8.8957 21.3244 8.89146 21.2692C8.88721 21.2352 8.88721 21.2012 8.88721 21.1672V18.2783C8.88721 18.0829 8.90845 18.0616 9.10387 18.0616H9.51172C9.62218 18.0616 9.67316 18.0999 9.7029 18.2061C9.73264 18.3123 9.75813 18.4185 9.78362 18.5332ZM29.6576 22.8411C29.938 22.8496 30.2141 22.8666 30.486 22.9388C30.5625 22.96 30.6347 22.9855 30.7069 23.0195C30.8047 23.0577 30.8684 23.1512 30.8811 23.2532C30.8981 23.3721 30.9024 23.4953 30.8939 23.6185C30.8386 24.345 30.6135 25.046 30.2396 25.6705C30.1037 25.8957 29.938 26.0996 29.7468 26.278C29.7086 26.3163 29.6618 26.346 29.6109 26.363C29.5301 26.3842 29.4792 26.3417 29.4749 26.261C29.4792 26.2185 29.4877 26.1761 29.5047 26.1336C29.6533 25.7342 29.7978 25.3391 29.9125 24.927C29.9805 24.7019 30.0272 24.4725 30.0569 24.2388C30.0654 24.1538 30.0697 24.0689 30.0612 23.9839C30.0569 23.8394 29.9635 23.7162 29.8233 23.6738C29.6916 23.6313 29.5556 23.6058 29.4154 23.5973C29.0246 23.5803 28.6337 23.5973 28.2471 23.6483L27.7331 23.712C27.6778 23.7162 27.6269 23.712 27.5971 23.661C27.5674 23.61 27.5801 23.5591 27.6099 23.5081C27.6439 23.4613 27.6863 23.4189 27.7373 23.3891C28.0517 23.164 28.4043 23.028 28.7782 22.9388C29.0671 22.8793 29.3602 22.8496 29.6576 22.8411Z" fill="white"/>
<path d="M27.8777 19.7227V21.2522C27.8692 21.3371 27.8309 21.3754 27.746 21.3796C27.5166 21.3839 27.2914 21.3839 27.062 21.3796C26.977 21.3796 26.9388 21.3371 26.9303 21.2564C26.926 21.2309 26.926 21.2012 26.926 21.1757V18.2358C26.9303 18.1041 26.9643 18.0659 27.096 18.0659H27.7077C27.8394 18.0659 27.8777 18.1041 27.8777 18.2358V19.7227Z" fill="white"/>
<path d="M11.4405 19.7142V18.206C11.4448 18.1041 11.483 18.0658 11.585 18.0616C11.8059 18.0573 12.0268 18.0573 12.2477 18.0616C12.3454 18.0616 12.3752 18.0913 12.3837 18.189C12.3879 18.2273 12.3879 18.2613 12.3879 18.2995V21.1289C12.3879 21.1757 12.3837 21.2224 12.3794 21.2691C12.3752 21.3244 12.3327 21.3626 12.2775 21.3668C12.252 21.3711 12.2307 21.3711 12.2052 21.3711H11.6147C11.5935 21.3711 11.5765 21.3711 11.5552 21.3668C11.4958 21.3626 11.4448 21.3159 11.4405 21.2564C11.4363 21.2224 11.4363 21.1884 11.4363 21.1544C11.4405 20.6829 11.4405 20.1985 11.4405 19.7142ZM11.9333 16.5407C12.0013 16.5364 12.0693 16.5492 12.133 16.5704C12.3624 16.6469 12.4814 16.8466 12.4601 17.1057C12.4432 17.3266 12.2775 17.5051 12.0565 17.539C11.9631 17.556 11.8654 17.556 11.7719 17.539C11.5297 17.4923 11.3513 17.3139 11.3683 17.008C11.3938 16.7064 11.5935 16.5407 11.9333 16.5407Z" fill="white"/>
<path d="M27.406 16.5407C27.4909 16.5322 27.5759 16.5492 27.6566 16.5832C27.8223 16.6469 27.937 16.7998 27.9455 16.9783C27.9795 17.3649 27.7203 17.5603 27.3762 17.5518C27.3295 17.5518 27.2828 17.5433 27.236 17.5348C26.9726 17.4711 26.8367 17.2672 26.8622 16.974C26.8834 16.7404 27.0661 16.5662 27.3167 16.5449C27.3465 16.5407 27.3762 16.5364 27.406 16.5407Z" fill="white"/>
<path d="M8.25852 19.3659C8.24152 19.145 8.18205 18.9283 8.09283 18.7286C7.91865 18.3632 7.651 18.0956 7.24315 18.0021C6.77583 17.9002 6.35524 18.0021 5.97288 18.2868C5.94739 18.3123 5.91765 18.3335 5.88367 18.3505C5.87517 18.3463 5.86667 18.342 5.86667 18.3378C5.85393 18.2953 5.84543 18.2528 5.83268 18.2103C5.7987 18.1041 5.75621 18.0659 5.64151 18.0659C5.51406 18.0659 5.38236 18.0701 5.2549 18.0659C5.15719 18.0616 5.06797 18.0744 5 18.1508C5 19.6378 5 21.129 5.00425 22.6116C5.05948 22.7009 5.14445 22.7179 5.24216 22.7136C5.3951 22.7094 5.54804 22.7136 5.70098 22.7136C5.96863 22.7136 5.96863 22.7136 5.96863 22.4502V21.2394C5.96863 21.2097 5.95589 21.1757 5.98563 21.1502C6.19805 21.3159 6.4572 21.4178 6.72485 21.4433C7.09871 21.4816 7.43858 21.3881 7.72322 21.1332C7.93139 20.942 8.08433 20.6956 8.16505 20.4237C8.27976 20.0754 8.28826 19.7227 8.25852 19.3659ZM7.24315 20.2453C7.21341 20.377 7.14544 20.4959 7.04773 20.5852C6.93727 20.6786 6.80132 20.7339 6.65687 20.7339C6.4402 20.7466 6.22779 20.6999 6.03661 20.5979C5.98988 20.5767 5.96014 20.5299 5.96439 20.4789V19.71C5.96439 19.4551 5.96863 19.2002 5.96439 18.9453C5.96014 18.8858 5.99412 18.8348 6.04935 18.8136C6.28301 18.7031 6.52517 18.6521 6.78008 18.7031C6.95851 18.7286 7.11145 18.8433 7.18367 19.009C7.2474 19.145 7.28564 19.2936 7.29413 19.4423C7.31962 19.7142 7.31962 19.9861 7.24315 20.2453Z" fill="white"/>
<path d="M38.9915 20.0286C38.9915 20.0244 38.9915 20.0244 38.9915 20.0286ZM38.9958 19.4593V19.4763C38.9788 19.4593 38.9703 19.4339 38.9788 19.4126V19.3786C38.9788 19.3786 38.9788 19.3744 38.983 19.3744H38.9788V19.3319H38.9873C38.9873 19.3276 38.983 19.3276 38.983 19.3234C38.9745 19.2427 38.9575 19.162 38.9363 19.0855C38.7791 18.5247 38.4265 18.1551 37.8529 18.0106C37.5853 17.9469 37.3134 17.9384 37.0415 17.9809C36.468 18.0659 36.0559 18.3718 35.8562 18.9155C35.6608 19.4339 35.665 20.0031 35.8604 20.5214C36.0304 20.993 36.3702 21.2904 36.8588 21.4136C37.118 21.4773 37.3899 21.4943 37.6575 21.4561C38.5497 21.3499 38.9193 20.6744 38.9788 20.0881H38.9745V20.0286C38.9703 20.0031 38.966 19.9819 38.9915 19.9649V19.9734C38.9915 19.9691 38.9958 19.9607 39 19.9564V19.4678C39 19.4636 38.9958 19.4636 38.9958 19.4593ZM37.9761 20.2665C37.9506 20.3558 37.9124 20.4365 37.8572 20.5129C37.7637 20.6446 37.615 20.7296 37.4536 20.7424C37.3729 20.7509 37.2921 20.7509 37.2114 20.7339C37.033 20.6999 36.8843 20.5809 36.8121 20.4152C36.7484 20.2835 36.7101 20.1391 36.6974 19.9946C36.6761 19.744 36.6719 19.4933 36.7314 19.2469C36.7526 19.1492 36.7951 19.0515 36.8461 18.9665C36.9395 18.8136 37.101 18.7159 37.2794 18.7031C37.3601 18.6946 37.4408 18.6946 37.5216 18.7116C37.6915 18.7456 37.8317 18.8561 37.9082 19.0133C37.9804 19.162 38.0229 19.3276 38.0314 19.4933C38.0356 19.5698 38.0399 19.6463 38.0356 19.7227C38.0484 19.9097 38.0271 20.0924 37.9761 20.2665ZM31.5483 16.5704H30.9578C30.7964 16.5704 30.7666 16.6002 30.7666 16.7616V18.1381C30.7666 18.1678 30.7794 18.1976 30.7581 18.2273C30.7199 18.2231 30.6986 18.1976 30.6689 18.1806C30.2271 17.9214 29.764 17.8747 29.2967 18.0914C28.9695 18.2443 28.7656 18.5204 28.6339 18.8476C28.5065 19.162 28.4767 19.4933 28.4852 19.829C28.4852 20.1433 28.5575 20.4535 28.6976 20.7339C28.8591 21.044 29.0927 21.2819 29.4326 21.3839C29.8957 21.5283 30.329 21.4561 30.7241 21.1629C30.7539 21.146 30.7709 21.1162 30.8091 21.1077C30.8303 21.1544 30.8473 21.2054 30.8558 21.2564C30.8728 21.3244 30.9323 21.3711 31.0045 21.3711H31.1065C31.2594 21.3711 31.4081 21.3754 31.5568 21.3711C31.6758 21.3711 31.7098 21.3329 31.714 21.2097V16.7319C31.7098 16.6002 31.6758 16.5704 31.5483 16.5704ZM30.7709 19.6973V20.4705C30.7794 20.5214 30.7496 20.5682 30.7029 20.5894C30.499 20.7041 30.2653 20.7509 30.0359 20.7169C29.8405 20.6956 29.6705 20.5767 29.5813 20.4025C29.5133 20.2665 29.4751 20.1221 29.4624 19.9734C29.4284 19.7057 29.4496 19.4339 29.5133 19.1747C29.5346 19.1025 29.5601 19.0345 29.5983 18.9665C29.6875 18.8008 29.8575 18.6946 30.0444 18.6819C30.2696 18.6606 30.4947 18.7031 30.6986 18.7966C30.7496 18.8136 30.7794 18.8646 30.7751 18.9198C30.7666 19.1832 30.7709 19.4381 30.7709 19.6973Z" fill="white"/>
<path d="M19.7843 19.9904C20.1029 20.0498 20.4301 20.0541 20.7487 20.0031C20.9356 19.9776 21.1141 19.9224 21.2797 19.8332C21.4709 19.7227 21.6111 19.5698 21.6706 19.3573C21.8193 18.822 21.5899 18.2825 21.0333 18.0828C20.7614 17.9936 20.4726 17.9639 20.1879 18.0021C19.5167 18.0786 19.0791 18.4482 18.8794 19.0897C18.7392 19.5273 18.7562 19.9734 18.8709 20.4152C19.0196 20.9802 19.3935 21.3158 19.9585 21.4348C20.2814 21.507 20.6085 21.4943 20.9314 21.4433C21.1013 21.4136 21.2712 21.3711 21.4327 21.3074C21.5304 21.2691 21.5814 21.2096 21.5771 21.0992C21.5729 20.9972 21.5771 20.891 21.5771 20.7848C21.5771 20.6573 21.5262 20.6191 21.4029 20.6489C21.2797 20.6786 21.1608 20.7041 21.0376 20.7296C20.7742 20.7848 20.5023 20.7848 20.2389 20.7381C19.8778 20.6658 19.6441 20.3557 19.6654 19.9734C19.7036 19.9776 19.7461 19.9819 19.7843 19.9904ZM19.6781 19.3403C19.6908 19.2384 19.7206 19.1407 19.7588 19.0472C19.8863 18.7371 20.1539 18.6309 20.4258 18.6479C20.5023 18.6521 20.5788 18.6691 20.651 18.6988C20.7614 18.7456 20.8337 18.8475 20.8464 18.9665C20.8592 19.0387 20.8549 19.1152 20.8337 19.1874C20.7827 19.3403 20.6595 19.4041 20.5108 19.4338C20.4216 19.4551 20.3281 19.4636 20.2346 19.4551C20.069 19.4551 19.899 19.4423 19.7333 19.4168C19.6696 19.4083 19.6696 19.4083 19.6781 19.3403Z" fill="white"/>
<path d="M34.1143 20.0329C34.3607 20.0159 34.6071 19.9692 34.828 19.8502C35.0532 19.7397 35.2104 19.5316 35.2571 19.2852C35.2868 19.1322 35.2868 18.9708 35.2529 18.8178C35.1636 18.4355 34.9215 18.1976 34.5561 18.0744C34.3522 18.0106 34.1355 17.9852 33.9231 17.9937C33.2094 18.0106 32.6656 18.3718 32.4447 19.0855C32.296 19.5571 32.3172 20.0371 32.4617 20.5087C32.6104 20.993 32.9502 21.2862 33.4345 21.4179C33.6427 21.4688 33.8594 21.4901 34.0718 21.4816C34.3819 21.4773 34.6921 21.4179 34.9852 21.3074C35.1084 21.2607 35.1382 21.2182 35.1382 21.0865V20.7806C35.1339 20.6574 35.0829 20.6149 34.9597 20.6446C34.8663 20.6701 34.777 20.6914 34.6836 20.7126C34.3989 20.7806 34.1015 20.7933 33.8127 20.7424C33.5238 20.6871 33.3283 20.5214 33.2519 20.2326C33.2306 20.1476 33.2136 20.0626 33.2051 19.9734C33.2264 19.9734 33.2476 19.9734 33.2646 19.9819C33.545 20.0329 33.8296 20.0541 34.1143 20.0329ZM33.2264 19.3531C33.2561 19.1874 33.2943 19.026 33.3963 18.8901C33.5535 18.6819 33.7702 18.6224 34.0166 18.6479C34.0378 18.6479 34.0548 18.6564 34.0761 18.6564C34.3734 18.7031 34.4457 18.941 34.3904 19.1705C34.3479 19.3404 34.2078 19.4041 34.0506 19.4339C33.9656 19.4508 33.8764 19.4593 33.7872 19.4551C33.613 19.4508 33.443 19.4381 33.2731 19.4126C33.2349 19.4084 33.2179 19.3914 33.2264 19.3531Z" fill="white"/>
</svg>
