<svg width="64" height="65" viewBox="0 0 64 65" fill="none" xmlns="http://www.w3.org/2000/svg">
<path d="M31.5303 39.4712V39.4467C31.5548 39.416 31.5977 39.3976 31.6345 39.4038C31.8124 39.3976 31.9841 39.3976 32.1619 39.4038C32.1987 39.4038 32.2416 39.416 32.2661 39.4467V39.4712H31.5303Z" fill="#D1EFFA"/>
<path d="M32.2661 39.4467C32.0209 39.4406 31.7756 39.4406 31.5303 39.4467C31.193 39.4283 30.8558 39.416 30.5185 39.3915C29.6232 39.3241 28.7341 39.1892 27.8634 38.9868C24.8526 38.2878 22.2097 36.8835 19.9041 34.8416C19.6894 34.6515 19.4871 34.4553 19.2786 34.259C19.2295 34.2161 19.1866 34.1548 19.1621 34.0935C19.1253 34.0076 19.1437 33.9157 19.205 33.8482C19.2663 33.7807 19.3644 33.7562 19.4503 33.793C19.5055 33.8175 19.5607 33.8421 19.6097 33.8727C21.8111 35.234 24.2148 36.2274 26.7351 36.8161C27.5813 37.0123 28.4336 37.1656 29.2921 37.276C30.5246 37.4293 31.7694 37.4845 33.0081 37.4415C33.6765 37.4231 34.3387 37.3618 35.001 37.276C36.5463 37.0798 38.0731 36.7302 39.5509 36.2397C40.3297 35.9821 41.09 35.6878 41.832 35.3444C41.9424 35.2831 42.0773 35.2647 42.1999 35.2953C42.4023 35.3444 42.5249 35.5529 42.4759 35.7552C42.4697 35.7798 42.4575 35.8104 42.4452 35.835C42.3962 35.9269 42.3287 36.0067 42.2429 36.068C41.5377 36.6199 40.7773 37.1043 39.974 37.509C38.4594 38.2755 36.8406 38.8212 35.1727 39.134C34.21 39.3057 33.2411 39.4099 32.2661 39.4467ZM23.1847 27.0172C23.338 26.9252 23.4974 26.8271 23.663 26.7412C24.0922 26.5205 24.5705 26.4101 25.0549 26.4346C25.4044 26.453 25.7233 26.5511 25.9686 26.8087C26.2016 27.0478 26.2874 27.3422 26.312 27.661C26.3181 27.7285 26.3181 27.7959 26.3181 27.8695V31.0459C26.3181 31.3218 26.2813 31.3586 26.0054 31.3586H25.2573C25.2082 31.3586 25.1592 31.3586 25.1101 31.3525C25.0365 31.3464 24.9752 31.285 24.9629 31.2114C24.9507 31.144 24.9507 31.0765 24.9507 31.0091V28.17C24.9568 28.0535 24.9445 27.9431 24.9139 27.8327C24.8648 27.6426 24.6931 27.5077 24.4969 27.4955C24.1351 27.4709 23.7733 27.5445 23.4422 27.6978C23.3932 27.7101 23.3625 27.7591 23.3686 27.8082V31.0336C23.3686 31.0949 23.3686 31.1501 23.3564 31.2114C23.3564 31.2973 23.2889 31.3586 23.2031 31.3586C23.1111 31.3647 23.0191 31.3647 22.921 31.3647H22.271C22.0441 31.3647 21.9951 31.3096 21.9951 31.0827V28.1823C21.9951 28.078 21.9889 27.9676 21.9644 27.8634C21.9215 27.6549 21.7437 27.5077 21.5352 27.4955C21.1672 27.4709 20.7932 27.5445 20.4621 27.704C20.413 27.7162 20.3824 27.7714 20.3946 27.8205V31.0888C20.3946 31.3157 20.3456 31.3647 20.1187 31.3647H19.297C19.0824 31.3647 19.0272 31.3034 19.0272 31.0949V26.8393C19.0272 26.7903 19.0333 26.7412 19.0456 26.6922C19.0701 26.6186 19.1437 26.5757 19.2173 26.5757H19.9838C20.0941 26.5757 20.1616 26.6431 20.1984 26.7474C20.2291 26.8332 20.2474 26.9129 20.2781 27.0049C20.3394 27.0049 20.3762 26.962 20.4191 26.9375C20.7564 26.729 21.1121 26.5511 21.5106 26.4776C21.8172 26.4162 22.1238 26.4162 22.4304 26.4776C22.7186 26.5389 22.9762 26.7106 23.1417 26.9559C23.154 26.9743 23.1663 26.9865 23.1785 26.9988C23.1724 27.0049 23.1785 27.0049 23.1847 27.0172Z" fill="white"/>
<path d="M35.8963 30.0709C35.933 29.9483 35.9698 29.8318 36.0066 29.7091C36.2887 28.7587 36.5708 27.8144 36.8528 26.8639L36.8896 26.7535C36.9203 26.6431 37.0245 26.5757 37.1349 26.5757H38.067C38.3 26.5757 38.349 26.6431 38.2693 26.8639L37.9014 27.8389C37.4906 28.9058 37.0797 29.9789 36.6689 31.0459C36.6566 31.0827 36.6382 31.1195 36.626 31.1563C36.583 31.2851 36.4543 31.3709 36.3194 31.3586C36.0496 31.3525 35.7797 31.3525 35.5099 31.3586C35.3198 31.3648 35.2095 31.2789 35.142 31.1072C34.9887 30.7025 34.8293 30.2917 34.676 29.887C34.3081 28.9242 33.934 27.9615 33.5661 26.9927C33.5293 26.9191 33.5048 26.8332 33.4864 26.7535C33.468 26.6309 33.5109 26.5696 33.6336 26.5696C33.9831 26.5634 34.3326 26.5696 34.676 26.5696C34.8232 26.5696 34.8906 26.6677 34.9274 26.7964C34.9949 27.0295 35.0623 27.2686 35.1359 27.5016C35.3873 28.354 35.6326 29.2124 35.884 30.0648C35.8779 30.0709 35.884 30.0709 35.8963 30.0709Z" fill="white"/>
<path d="M14.1216 27.2502C14.1645 27.2379 14.2013 27.2134 14.2259 27.1766C14.3362 27.0662 14.4528 26.962 14.5754 26.8639C14.8943 26.6186 15.2928 26.4959 15.6914 26.5266C15.8508 26.5327 15.906 26.5818 15.9183 26.7351C15.9306 26.9436 15.9244 27.1582 15.9244 27.3667C15.9306 27.4525 15.9244 27.5322 15.9122 27.6181C15.8876 27.7285 15.8447 27.7714 15.7343 27.7837C15.6485 27.7898 15.5688 27.7837 15.4829 27.7775C15.0721 27.7407 14.6735 27.8205 14.2872 27.9492C14.2013 27.9799 14.2013 28.0412 14.2013 28.1087V31.052C14.2013 31.1072 14.2013 31.1562 14.1952 31.2114C14.1891 31.2912 14.1278 31.3525 14.048 31.3525C14.0051 31.3586 13.9561 31.3586 13.9131 31.3586H13.116C13.0731 31.3586 13.024 31.3586 12.9811 31.3525C12.9014 31.3463 12.84 31.2789 12.8339 31.1992C12.8278 31.1501 12.8278 31.1011 12.8278 31.052V26.8823C12.8278 26.6002 12.8584 26.5695 13.1405 26.5695H13.7292C13.8886 26.5695 13.9622 26.6247 14.0051 26.778C14.048 26.9313 14.0848 27.0846 14.1216 27.2502ZM42.807 33.468C43.2117 33.4803 43.6103 33.5048 44.0028 33.609C44.1131 33.6397 44.2174 33.6765 44.3216 33.7255C44.4627 33.7807 44.5546 33.9156 44.573 34.0628C44.5976 34.2345 44.6037 34.4123 44.5914 34.5902C44.5117 35.6387 44.1867 36.6505 43.6471 37.5519C43.4509 37.8769 43.2117 38.1712 42.9358 38.4288C42.8806 38.484 42.8132 38.5269 42.7396 38.5514C42.6231 38.5821 42.5495 38.5208 42.5434 38.4042C42.5495 38.3429 42.5618 38.2816 42.5863 38.2203C42.8009 37.6439 43.0094 37.0736 43.175 36.4788C43.2731 36.1538 43.3405 35.8227 43.3834 35.4854C43.3957 35.3628 43.4018 35.2401 43.3896 35.1175C43.3834 34.909 43.2485 34.7312 43.0462 34.6699C42.8561 34.6086 42.6599 34.5718 42.4575 34.5595C41.8934 34.535 41.3292 34.5595 40.7712 34.6331L40.0292 34.7251C39.9495 34.7312 39.8759 34.7251 39.833 34.6515C39.7901 34.5779 39.8085 34.5043 39.8514 34.4307C39.9005 34.3633 39.9618 34.302 40.0354 34.259C40.4891 33.934 40.9981 33.7378 41.5377 33.609C41.9547 33.5232 42.3778 33.4803 42.807 33.468Z" fill="white"/>
<path d="M40.2377 28.9672V31.1747C40.2255 31.2973 40.1703 31.3525 40.0476 31.3586C39.7165 31.3648 39.3915 31.3648 39.0604 31.3586C38.9377 31.3586 38.8825 31.2973 38.8703 31.1808C38.8642 31.144 38.8642 31.1011 38.8642 31.0643V26.821C38.8703 26.6309 38.9193 26.5757 39.1094 26.5757H39.9924C40.1825 26.5757 40.2377 26.6309 40.2377 26.821V28.9672Z" fill="white"/>
<path d="M16.5131 28.9549V26.778C16.5192 26.6309 16.5744 26.5757 16.7216 26.5695C17.0404 26.5634 17.3593 26.5634 17.6782 26.5695C17.8192 26.5695 17.8621 26.6125 17.8744 26.7535C17.8805 26.8087 17.8805 26.8577 17.8805 26.9129V30.9968C17.8805 31.0643 17.8744 31.1317 17.8683 31.1992C17.8621 31.2789 17.8008 31.3341 17.7211 31.3402C17.6843 31.3463 17.6536 31.3463 17.6168 31.3463H16.7645C16.7338 31.3463 16.7093 31.3463 16.6787 31.3402C16.5928 31.3341 16.5192 31.2666 16.5131 31.1808C16.507 31.1317 16.507 31.0827 16.507 31.0336C16.5131 30.353 16.5131 29.6539 16.5131 28.9549ZM17.2244 24.3743C17.3225 24.3682 17.4206 24.3865 17.5126 24.4172C17.8437 24.5276 18.0154 24.8158 17.9848 25.1898C17.9602 25.5087 17.7211 25.7662 17.4022 25.8153C17.2673 25.8398 17.1263 25.8398 16.9914 25.8153C16.6419 25.7478 16.3843 25.4903 16.4088 25.0488C16.4456 24.6134 16.7338 24.3743 17.2244 24.3743Z" fill="white"/>
<path d="M39.5571 24.3743C39.6797 24.362 39.8024 24.3865 39.9189 24.4356C40.158 24.5276 40.3236 24.7483 40.3358 25.0059C40.3849 25.5639 40.0108 25.846 39.5141 25.8337C39.4467 25.8337 39.3792 25.8214 39.3118 25.8092C38.9316 25.7172 38.7354 25.4228 38.7722 24.9997C38.8028 24.6625 39.0665 24.4111 39.4283 24.3804C39.4712 24.3743 39.5141 24.3681 39.5571 24.3743Z" fill="white"/>
<path d="M11.9202 28.452C11.8957 28.1332 11.8099 27.8204 11.6811 27.5322C11.4297 27.0049 11.0434 26.6186 10.4547 26.4837C9.78017 26.3365 9.1731 26.4837 8.62123 26.8945C8.58443 26.9313 8.54151 26.9619 8.49245 26.9865C8.48019 26.9803 8.46793 26.9742 8.46793 26.9681C8.44953 26.9068 8.43727 26.8454 8.41887 26.7841C8.36981 26.6308 8.30849 26.5756 8.14293 26.5756C7.95897 26.5756 7.76888 26.5818 7.58492 26.5756C7.44388 26.5695 7.31511 26.5879 7.217 26.6983C7.217 28.8445 7.217 30.9968 7.22313 33.1369C7.30285 33.2656 7.42549 33.2902 7.56652 33.284C7.78728 33.2779 8.00803 33.284 8.22878 33.284C8.61509 33.284 8.61509 33.284 8.61509 32.9038V31.1562C8.61509 31.1133 8.5967 31.0642 8.63962 31.0275C8.94622 31.2666 9.32027 31.4138 9.70659 31.4506C10.2462 31.5057 10.7368 31.3708 11.1476 31.0029C11.4481 30.727 11.6688 30.3713 11.7853 29.9789C11.9509 29.4761 11.9632 28.9671 11.9202 28.452ZM10.4547 29.7213C10.4118 29.9114 10.3137 30.0831 10.1726 30.2119C10.0132 30.3468 9.81696 30.4265 9.60847 30.4265C9.29574 30.4449 8.98914 30.3775 8.7132 30.2303C8.64575 30.1996 8.60283 30.1322 8.60896 30.0586V28.9487C8.60896 28.5808 8.61509 28.2129 8.60896 27.845C8.60283 27.7591 8.65189 27.6855 8.7316 27.6549C9.06886 27.4954 9.41838 27.4218 9.7863 27.4954C10.0438 27.5322 10.2646 27.6978 10.3688 27.9369C10.4608 28.1332 10.516 28.3478 10.5283 28.5624C10.5651 28.9548 10.5651 29.3473 10.4547 29.7213Z" fill="white"/>
<path d="M56.279 29.4087C56.279 29.4025 56.279 29.4025 56.279 29.4087ZM56.2851 28.587V28.6115C56.2606 28.587 56.2483 28.5502 56.2606 28.5195V28.4705C56.2606 28.4705 56.2606 28.4643 56.2667 28.4643H56.2606V28.403H56.2729C56.2729 28.3969 56.2667 28.3969 56.2667 28.3908C56.2545 28.2743 56.2299 28.1577 56.1993 28.0474C55.9724 27.2379 55.4634 26.7045 54.6356 26.496C54.2493 26.404 53.8569 26.3917 53.4644 26.4531C52.6366 26.5757 52.0418 27.0172 51.7536 27.8021C51.4715 28.5502 51.4776 29.3719 51.7597 30.12C52.005 30.8006 52.4956 31.2299 53.2007 31.4077C53.5748 31.4997 53.9672 31.5242 54.3535 31.469C55.6413 31.3157 56.1747 30.3407 56.2606 29.4945H56.2545V29.4087C56.2483 29.3719 56.2422 29.3412 56.279 29.3167V29.329C56.279 29.3228 56.2851 29.3106 56.2912 29.3044V28.5992C56.2912 28.5931 56.2851 28.5931 56.2851 28.587ZM54.8134 29.7521C54.7767 29.8808 54.7215 29.9973 54.6417 30.1077C54.5068 30.2978 54.2922 30.4204 54.0592 30.4388C53.9427 30.4511 53.8262 30.4511 53.7097 30.4266C53.4521 30.3775 53.2375 30.2058 53.1333 29.9667C53.0413 29.7766 52.9861 29.5681 52.9677 29.3596C52.9371 28.9978 52.9309 28.636 53.0168 28.2804C53.0474 28.1393 53.1087 27.9983 53.1823 27.8757C53.3172 27.6549 53.5503 27.5139 53.8078 27.4955C53.9243 27.4832 54.0408 27.4832 54.1573 27.5078C54.4026 27.5568 54.605 27.7162 54.7153 27.9431C54.8196 28.1577 54.8809 28.3969 54.8932 28.636C54.8993 28.7464 54.9054 28.8568 54.8993 28.9672C54.9177 29.237 54.887 29.5006 54.8134 29.7521ZM45.5358 24.4172H44.6834C44.4504 24.4172 44.4075 24.4602 44.4075 24.6932V26.6799C44.4075 26.7229 44.4259 26.7658 44.3952 26.8087C44.34 26.8026 44.3094 26.7658 44.2664 26.7413C43.6287 26.3672 42.9603 26.2998 42.2858 26.6125C41.8136 26.8332 41.5193 27.2318 41.3292 27.704C41.1453 28.1577 41.1023 28.636 41.1146 29.1205C41.1146 29.5742 41.2188 30.0219 41.4212 30.4266C41.6542 30.8742 41.9915 31.2176 42.482 31.3648C43.1504 31.5733 43.7759 31.469 44.3462 31.0459C44.3891 31.0214 44.4136 30.9785 44.4688 30.9662C44.4995 31.0336 44.524 31.1072 44.5362 31.1808C44.5608 31.2789 44.6466 31.3464 44.7509 31.3464H44.898C45.1188 31.3464 45.3334 31.3525 45.548 31.3464C45.7197 31.3464 45.7688 31.2912 45.7749 31.1134V24.6503C45.7688 24.4602 45.7197 24.4172 45.5358 24.4172ZM44.4136 28.9304V30.0464C44.4259 30.12 44.3829 30.1874 44.3155 30.2181C44.0212 30.3837 43.6839 30.4511 43.3528 30.402C43.0707 30.3714 42.8254 30.1997 42.6966 29.9483C42.5985 29.7521 42.5433 29.5436 42.525 29.329C42.4759 28.9426 42.5066 28.5502 42.5985 28.1761C42.6292 28.0719 42.666 27.9738 42.7212 27.8757C42.8499 27.6365 43.0952 27.4832 43.365 27.4648C43.69 27.4342 44.015 27.4955 44.3094 27.6304C44.3829 27.6549 44.4259 27.7285 44.4197 27.8082C44.4075 28.1884 44.4136 28.5563 44.4136 28.9304Z" fill="white"/>
<path d="M28.5563 29.3534C29.0162 29.4393 29.4884 29.4454 29.9483 29.3718C30.2181 29.335 30.4756 29.2553 30.7148 29.1265C30.9907 28.9671 31.193 28.7463 31.2789 28.4397C31.4935 27.6671 31.1624 26.8884 30.3591 26.6002C29.9667 26.4714 29.5497 26.4285 29.1388 26.4836C28.17 26.594 27.5384 27.1275 27.2502 28.0534C27.0478 28.685 27.0724 29.3289 27.2379 29.9666C27.4525 30.7822 27.9922 31.2666 28.8077 31.4383C29.2737 31.5425 29.7459 31.5241 30.2119 31.4505C30.4572 31.4076 30.7025 31.3463 30.9355 31.2543C31.0765 31.1991 31.1501 31.1133 31.144 30.9539C31.1379 30.8067 31.144 30.6534 31.144 30.5001C31.144 30.3161 31.0704 30.2609 30.8926 30.3039C30.7148 30.3468 30.5431 30.3836 30.3652 30.4204C29.985 30.5001 29.5926 30.5001 29.2124 30.4326C28.6912 30.3284 28.3539 29.8808 28.3846 29.3289C28.4398 29.335 28.5011 29.3411 28.5563 29.3534ZM28.403 28.4152C28.4214 28.2681 28.4643 28.127 28.5195 27.9921C28.7035 27.5445 29.0898 27.3912 29.4822 27.4157C29.5926 27.4218 29.703 27.4464 29.8072 27.4893C29.9667 27.5567 30.0709 27.7039 30.0893 27.8756C30.1077 27.9798 30.1016 28.0902 30.0709 28.1945C29.9973 28.4152 29.8195 28.5072 29.6049 28.5501C29.4761 28.5808 29.3412 28.593 29.2063 28.5808C28.9671 28.5808 28.7219 28.5624 28.4827 28.5256C28.3907 28.5133 28.3907 28.5133 28.403 28.4152Z" fill="white"/>
<path d="M49.2395 29.4148C49.5951 29.3902 49.9508 29.3228 50.2696 29.1511C50.5946 28.9916 50.8215 28.6912 50.889 28.3355C50.9319 28.1148 50.9319 27.8818 50.8828 27.661C50.7541 27.1091 50.4045 26.7657 49.8772 26.5879C49.5829 26.4959 49.2701 26.4591 48.9635 26.4714C47.9334 26.4959 47.1485 27.0172 46.8296 28.0473C46.615 28.728 46.6456 29.4209 46.8541 30.1015C47.0687 30.8006 47.5593 31.2237 48.2583 31.4138C48.5588 31.4874 48.8715 31.518 49.1781 31.5058C49.6258 31.4996 50.0734 31.4138 50.4965 31.2543C50.6743 31.1869 50.7173 31.1256 50.7173 30.9355V30.494C50.7111 30.3162 50.6376 30.2548 50.4597 30.2978C50.3248 30.3346 50.1961 30.3652 50.0612 30.3959C49.6503 30.494 49.2211 30.5124 48.8041 30.4388C48.3871 30.3591 48.1051 30.1199 47.9947 29.703C47.964 29.5803 47.9395 29.4577 47.9272 29.3289C47.9579 29.3289 47.9885 29.3289 48.0131 29.3412C48.4178 29.4148 48.8286 29.4454 49.2395 29.4148ZM47.9579 28.4336C48.0008 28.1945 48.056 27.9615 48.2032 27.7653C48.43 27.4648 48.7428 27.3789 49.0984 27.4157C49.1291 27.4157 49.1536 27.428 49.1843 27.428C49.6135 27.4954 49.7178 27.8388 49.638 28.17C49.5767 28.4152 49.3744 28.5072 49.1475 28.5501C49.0248 28.5747 48.8961 28.5869 48.7673 28.5808C48.5159 28.5747 48.2706 28.5563 48.0253 28.5195C47.9701 28.5134 47.9456 28.4888 47.9579 28.4336Z" fill="white"/>
</svg>
