<svg width="44" height="44" viewBox="0 0 44 44" fill="none" xmlns="http://www.w3.org/2000/svg">
<rect width="44" height="44" rx="5" fill="black" fill-opacity="0.2"/>
<path d="M21.845 27.0002V26.9832C21.862 26.962 21.8917 26.9493 21.9172 26.9535C22.0404 26.9493 22.1594 26.9493 22.2826 26.9535C22.308 26.9535 22.3378 26.962 22.3548 26.9832V27.0002H21.845Z" fill="#D1EFFA"/>
<path d="M22.3548 26.9832C22.1848 26.979 22.0149 26.979 21.845 26.9832C21.6113 26.9705 21.3776 26.962 21.144 26.945C20.5237 26.8983 19.9077 26.8048 19.3044 26.6646C17.2185 26.1803 15.3874 25.2074 13.79 23.7927C13.6413 23.661 13.5011 23.525 13.3567 23.3891C13.3227 23.3594 13.293 23.3169 13.276 23.2744C13.2505 23.2149 13.2632 23.1512 13.3057 23.1045C13.3482 23.0577 13.4162 23.0407 13.4756 23.0662C13.5139 23.0832 13.5521 23.1002 13.5861 23.1214C15.1113 24.0646 16.7766 24.7528 18.5227 25.1607C19.109 25.2966 19.6995 25.4028 20.2943 25.4793C21.1482 25.5855 22.0107 25.6238 22.8688 25.594C23.3319 25.5813 23.7907 25.5388 24.2496 25.4793C25.3201 25.3434 26.378 25.1012 27.4019 24.7613C27.9414 24.5829 28.4682 24.379 28.9823 24.1411C29.0587 24.0986 29.1522 24.0858 29.2372 24.1071C29.3774 24.1411 29.4623 24.2855 29.4283 24.4257C29.4241 24.4427 29.4156 24.4639 29.4071 24.4809C29.3731 24.5447 29.3264 24.5999 29.2669 24.6424C28.7783 25.0247 28.2515 25.3604 27.695 25.6407C26.6456 26.1718 25.5241 26.5499 24.3685 26.7666C23.7015 26.8855 23.0303 26.9577 22.3548 26.9832ZM16.0629 18.3717C16.1691 18.308 16.2796 18.24 16.3943 18.1806C16.6917 18.0276 17.023 17.9512 17.3587 17.9682C17.6008 17.9809 17.8217 18.0489 17.9917 18.2273C18.1531 18.393 18.2126 18.5969 18.2296 18.8178C18.2338 18.8646 18.2338 18.9113 18.2338 18.9623V21.1629C18.2338 21.3541 18.2083 21.3796 18.0172 21.3796H17.4989C17.4649 21.3796 17.4309 21.3796 17.3969 21.3754C17.3459 21.3711 17.3034 21.3286 17.2949 21.2776C17.2864 21.2309 17.2864 21.1842 17.2864 21.1375V19.1704C17.2907 19.0897 17.2822 19.0133 17.261 18.9368C17.227 18.8051 17.108 18.7116 16.9721 18.7031C16.7214 18.6861 16.4708 18.7371 16.2413 18.8433C16.2073 18.8518 16.1861 18.8858 16.1904 18.9198V21.1544C16.1904 21.1969 16.1904 21.2352 16.1819 21.2776C16.1819 21.3371 16.1351 21.3796 16.0756 21.3796C16.0119 21.3839 15.9482 21.3839 15.8802 21.3839H15.4299C15.2727 21.3839 15.2387 21.3456 15.2387 21.1884V19.1789C15.2387 19.1067 15.2345 19.0302 15.2175 18.958C15.1877 18.8136 15.0645 18.7116 14.9201 18.7031C14.6652 18.6861 14.406 18.7371 14.1766 18.8476C14.1426 18.8561 14.1214 18.8943 14.1299 18.9283V21.1927C14.1299 21.3499 14.0959 21.3839 13.9387 21.3839H13.3694C13.2207 21.3839 13.1825 21.3414 13.1825 21.1969V18.2485C13.1825 18.2146 13.1867 18.1806 13.1952 18.1466C13.2122 18.0956 13.2632 18.0659 13.3142 18.0659H13.8452C13.9217 18.0659 13.9684 18.1126 13.9939 18.1848C14.0152 18.2443 14.0279 18.2995 14.0492 18.3633C14.0917 18.3633 14.1171 18.3335 14.1469 18.3165C14.3805 18.1721 14.6269 18.0489 14.9031 17.9979C15.1155 17.9554 15.3279 17.9554 15.5404 17.9979C15.74 18.0404 15.9185 18.1593 16.0332 18.3293C16.0417 18.342 16.0502 18.3505 16.0587 18.359C16.0544 18.3633 16.0587 18.3633 16.0629 18.3717Z" fill="white"/>
<path d="M24.8698 20.4874C24.8953 20.4024 24.9208 20.3217 24.9463 20.2368C25.1417 19.5783 25.3372 18.924 25.5326 18.2655L25.5581 18.189C25.5793 18.1126 25.6515 18.0658 25.728 18.0658H26.3738C26.5352 18.0658 26.5692 18.1126 26.514 18.2655L26.2591 18.941C25.9744 19.6802 25.6898 20.4237 25.4051 21.1629C25.3966 21.1884 25.3839 21.2139 25.3754 21.2394C25.3457 21.3286 25.2564 21.3881 25.163 21.3796C24.976 21.3753 24.7891 21.3753 24.6022 21.3796C24.4705 21.3838 24.394 21.3243 24.3473 21.2054C24.2411 20.925 24.1306 20.6404 24.0244 20.36C23.7695 19.693 23.5103 19.026 23.2554 18.3547C23.23 18.3037 23.213 18.2443 23.2002 18.189C23.1875 18.1041 23.2172 18.0616 23.3022 18.0616C23.5443 18.0573 23.7865 18.0616 24.0244 18.0616C24.1264 18.0616 24.1731 18.1296 24.1986 18.2188C24.2453 18.3802 24.2921 18.5459 24.343 18.7073C24.5172 19.2979 24.6872 19.8926 24.8613 20.4832C24.8571 20.4874 24.8613 20.4874 24.8698 20.4874Z" fill="white"/>
<path d="M9.7838 18.5332C9.81354 18.5247 9.83903 18.5077 9.85602 18.4822C9.93249 18.4058 10.0132 18.3335 10.0982 18.2656C10.3191 18.0956 10.5952 18.0107 10.8714 18.0319C10.9818 18.0361 11.0201 18.0701 11.0286 18.1763C11.0371 18.3208 11.0328 18.4695 11.0328 18.6139C11.0371 18.6734 11.0328 18.7286 11.0243 18.7881C11.0073 18.8646 10.9776 18.8943 10.9011 18.9028C10.8417 18.9071 10.7864 18.9028 10.7269 18.8986C10.4423 18.8731 10.1662 18.9283 9.89851 19.0175C9.83903 19.0388 9.83903 19.0812 9.83903 19.128V21.1672C9.83903 21.2054 9.83903 21.2394 9.83478 21.2777C9.83053 21.3329 9.78805 21.3754 9.73282 21.3754C9.70308 21.3796 9.66909 21.3796 9.63936 21.3796H9.08706C9.05733 21.3796 9.02334 21.3796 8.9936 21.3754C8.93837 21.3711 8.89589 21.3244 8.89164 21.2692C8.88739 21.2352 8.88739 21.2012 8.88739 21.1672V18.2783C8.88739 18.0829 8.90863 18.0616 9.10406 18.0616H9.5119C9.62236 18.0616 9.67334 18.0999 9.70308 18.2061C9.73282 18.3123 9.75831 18.4185 9.7838 18.5332ZM29.6578 22.8411C29.9382 22.8496 30.2143 22.8666 30.4862 22.9388C30.5627 22.96 30.6349 22.9855 30.7071 23.0195C30.8048 23.0577 30.8686 23.1512 30.8813 23.2532C30.8983 23.3721 30.9026 23.4953 30.8941 23.6185C30.8388 24.345 30.6137 25.046 30.2398 25.6705C30.1039 25.8957 29.9382 26.0996 29.747 26.278C29.7088 26.3163 29.662 26.346 29.611 26.363C29.5303 26.3842 29.4793 26.3417 29.4751 26.261C29.4793 26.2185 29.4878 26.1761 29.5048 26.1336C29.6535 25.7342 29.798 25.3391 29.9127 24.927C29.9807 24.7019 30.0274 24.4725 30.0571 24.2388C30.0656 24.1538 30.0699 24.0689 30.0614 23.9839C30.0571 23.8394 29.9637 23.7162 29.8235 23.6738C29.6918 23.6313 29.5558 23.6058 29.4156 23.5973C29.0248 23.5803 28.6339 23.5973 28.2473 23.6483L27.7333 23.712C27.678 23.7162 27.627 23.712 27.5973 23.661C27.5676 23.61 27.5803 23.5591 27.6101 23.5081C27.644 23.4613 27.6865 23.4189 27.7375 23.3891C28.0519 23.164 28.4045 23.028 28.7784 22.9388C29.0673 22.8793 29.3604 22.8496 29.6578 22.8411Z" fill="white"/>
<path d="M27.8777 19.7227V21.2522C27.8692 21.3371 27.831 21.3754 27.746 21.3796C27.5166 21.3839 27.2914 21.3839 27.062 21.3796C26.9771 21.3796 26.9388 21.3371 26.9303 21.2564C26.9261 21.2309 26.9261 21.2012 26.9261 21.1757V18.2358C26.9303 18.1041 26.9643 18.0659 27.096 18.0659H27.7078C27.8395 18.0659 27.8777 18.1041 27.8777 18.2358V19.7227Z" fill="white"/>
<path d="M11.4407 19.7142V18.206C11.445 18.1041 11.4832 18.0658 11.5852 18.0616C11.8061 18.0573 12.027 18.0573 12.2479 18.0616C12.3456 18.0616 12.3754 18.0913 12.3839 18.189C12.3881 18.2273 12.3881 18.2613 12.3881 18.2995V21.1289C12.3881 21.1757 12.3839 21.2224 12.3796 21.2691C12.3754 21.3244 12.3329 21.3626 12.2776 21.3668C12.2522 21.3711 12.2309 21.3711 12.2054 21.3711H11.6149C11.5937 21.3711 11.5767 21.3711 11.5554 21.3668C11.4959 21.3626 11.445 21.3159 11.4407 21.2564C11.4365 21.2224 11.4365 21.1884 11.4365 21.1544C11.4407 20.6829 11.4407 20.1985 11.4407 19.7142ZM11.9335 16.5407C12.0015 16.5364 12.0695 16.5492 12.1332 16.5704C12.3626 16.6469 12.4816 16.8466 12.4603 17.1057C12.4433 17.3266 12.2776 17.5051 12.0567 17.539C11.9633 17.556 11.8656 17.556 11.7721 17.539C11.5299 17.4923 11.3515 17.3139 11.3685 17.008C11.394 16.7064 11.5937 16.5407 11.9335 16.5407Z" fill="white"/>
<path d="M27.4061 16.5407C27.4911 16.5322 27.5761 16.5492 27.6568 16.5832C27.8225 16.6469 27.9372 16.7998 27.9457 16.9783C27.9797 17.3649 27.7205 17.5603 27.3764 17.5518C27.3297 17.5518 27.2829 17.5433 27.2362 17.5348C26.9728 17.4711 26.8369 17.2672 26.8623 16.974C26.8836 16.7404 27.0663 16.5662 27.3169 16.5449C27.3467 16.5407 27.3764 16.5364 27.4061 16.5407Z" fill="white"/>
<path d="M8.25864 19.3659C8.24165 19.145 8.18217 18.9283 8.09295 18.7286C7.91877 18.3632 7.65112 18.0956 7.24327 18.0021C6.77595 17.9002 6.35536 18.0021 5.973 18.2868C5.94751 18.3123 5.91777 18.3335 5.88379 18.3505C5.87529 18.3463 5.86679 18.342 5.86679 18.3378C5.85405 18.2953 5.84555 18.2528 5.83281 18.2103C5.79882 18.1041 5.75634 18.0659 5.64163 18.0659C5.51418 18.0659 5.38248 18.0701 5.25503 18.0659C5.15731 18.0616 5.0681 18.0744 5.00012 18.1508C5.00012 19.6378 5.00012 21.129 5.00437 22.6116C5.0596 22.7009 5.14457 22.7179 5.24228 22.7136C5.39522 22.7094 5.54816 22.7136 5.70111 22.7136C5.96876 22.7136 5.96876 22.7136 5.96876 22.4502V21.2394C5.96876 21.2097 5.95601 21.1757 5.98575 21.1502C6.19817 21.3159 6.45732 21.4178 6.72497 21.4433C7.09883 21.4816 7.4387 21.3881 7.72334 21.1332C7.93151 20.942 8.08445 20.6956 8.16517 20.4237C8.27988 20.0754 8.28838 19.7227 8.25864 19.3659ZM7.24327 20.2453C7.21353 20.377 7.14556 20.4959 7.04785 20.5852C6.93739 20.6786 6.80144 20.7339 6.657 20.7339C6.44033 20.7466 6.22791 20.6999 6.03673 20.5979C5.99 20.5767 5.96026 20.5299 5.96451 20.4789V19.71C5.96451 19.4551 5.96876 19.2002 5.96451 18.9453C5.96026 18.8858 5.99425 18.8348 6.04947 18.8136C6.28314 18.7031 6.52529 18.6521 6.7802 18.7031C6.95863 18.7286 7.11157 18.8433 7.1838 19.009C7.24752 19.145 7.28576 19.2936 7.29425 19.4423C7.31974 19.7142 7.31974 19.9861 7.24327 20.2453Z" fill="white"/>
<path d="M38.9915 20.0286C38.9915 20.0244 38.9915 20.0244 38.9915 20.0286ZM38.9958 19.4593V19.4763C38.9788 19.4593 38.9703 19.4339 38.9788 19.4126V19.3786C38.9788 19.3786 38.9788 19.3744 38.983 19.3744H38.9788V19.3319H38.9873C38.9873 19.3276 38.983 19.3276 38.983 19.3234C38.9745 19.2427 38.9575 19.162 38.9363 19.0855C38.7791 18.5247 38.4265 18.1551 37.8529 18.0106C37.5853 17.9469 37.3134 17.9384 37.0415 17.9809C36.468 18.0659 36.0559 18.3718 35.8562 18.9155C35.6608 19.4339 35.665 20.0031 35.8604 20.5214C36.0304 20.993 36.3702 21.2904 36.8588 21.4136C37.118 21.4773 37.3899 21.4943 37.6575 21.4561C38.5497 21.3499 38.9193 20.6744 38.9788 20.0881H38.9745V20.0286C38.9703 20.0031 38.966 19.9819 38.9915 19.9649V19.9734C38.9915 19.9691 38.9958 19.9607 39 19.9564V19.4678C39 19.4636 38.9958 19.4636 38.9958 19.4593ZM37.9761 20.2665C37.9506 20.3558 37.9124 20.4365 37.8572 20.5129C37.7637 20.6446 37.615 20.7296 37.4536 20.7424C37.3729 20.7509 37.2921 20.7509 37.2114 20.7339C37.033 20.6999 36.8843 20.5809 36.8121 20.4152C36.7484 20.2835 36.7101 20.1391 36.6974 19.9946C36.6761 19.744 36.6719 19.4933 36.7314 19.2469C36.7526 19.1492 36.7951 19.0515 36.8461 18.9665C36.9395 18.8136 37.101 18.7159 37.2794 18.7031C37.3601 18.6946 37.4408 18.6946 37.5216 18.7116C37.6915 18.7456 37.8317 18.8561 37.9082 19.0133C37.9804 19.162 38.0229 19.3276 38.0314 19.4933C38.0356 19.5698 38.0399 19.6463 38.0356 19.7227C38.0484 19.9097 38.0271 20.0924 37.9761 20.2665ZM31.5483 16.5704H30.9578C30.7964 16.5704 30.7666 16.6002 30.7666 16.7616V18.1381C30.7666 18.1678 30.7794 18.1976 30.7581 18.2273C30.7199 18.2231 30.6986 18.1976 30.6689 18.1806C30.2271 17.9214 29.764 17.8747 29.2967 18.0914C28.9695 18.2443 28.7656 18.5204 28.6339 18.8476C28.5065 19.162 28.4767 19.4933 28.4852 19.829C28.4852 20.1433 28.5575 20.4535 28.6976 20.7339C28.8591 21.044 29.0927 21.2819 29.4326 21.3839C29.8957 21.5283 30.329 21.4561 30.7241 21.1629C30.7539 21.146 30.7709 21.1162 30.8091 21.1077C30.8303 21.1544 30.8473 21.2054 30.8558 21.2564C30.8728 21.3244 30.9323 21.3711 31.0045 21.3711H31.1065C31.2594 21.3711 31.4081 21.3754 31.5568 21.3711C31.6758 21.3711 31.7098 21.3329 31.714 21.2097V16.7319C31.7098 16.6002 31.6758 16.5704 31.5483 16.5704ZM30.7709 19.6973V20.4705C30.7794 20.5214 30.7496 20.5682 30.7029 20.5894C30.499 20.7041 30.2653 20.7509 30.0359 20.7169C29.8405 20.6956 29.6705 20.5767 29.5813 20.4025C29.5133 20.2665 29.4751 20.1221 29.4624 19.9734C29.4284 19.7057 29.4496 19.4339 29.5133 19.1747C29.5346 19.1025 29.5601 19.0345 29.5983 18.9665C29.6875 18.8008 29.8575 18.6946 30.0444 18.6819C30.2696 18.6606 30.4947 18.7031 30.6986 18.7966C30.7496 18.8136 30.7794 18.8646 30.7751 18.9198C30.7666 19.1832 30.7709 19.4381 30.7709 19.6973Z" fill="white"/>
<path d="M19.7846 19.9904C20.1032 20.0498 20.4303 20.0541 20.7489 20.0031C20.9359 19.9776 21.1143 19.9224 21.28 19.8332C21.4712 19.7227 21.6114 19.5698 21.6708 19.3573C21.8195 18.822 21.5901 18.2825 21.0336 18.0828C20.7617 17.9936 20.4728 17.9639 20.1882 18.0021C19.5169 18.0786 19.0793 18.4482 18.8796 19.0897C18.7395 19.5273 18.7564 19.9734 18.8712 20.4152C19.0198 20.9802 19.3937 21.3158 19.9587 21.4348C20.2816 21.507 20.6087 21.4943 20.9316 21.4433C21.1016 21.4136 21.2715 21.3711 21.4329 21.3074C21.5306 21.2691 21.5816 21.2096 21.5774 21.0992C21.5731 20.9972 21.5774 20.891 21.5774 20.7848C21.5774 20.6573 21.5264 20.6191 21.4032 20.6489C21.28 20.6786 21.161 20.7041 21.0378 20.7296C20.7744 20.7848 20.5025 20.7848 20.2391 20.7381C19.878 20.6658 19.6444 20.3557 19.6656 19.9734C19.7038 19.9776 19.7463 19.9819 19.7846 19.9904ZM19.6783 19.3403C19.6911 19.2384 19.7208 19.1407 19.7591 19.0472C19.8865 18.7371 20.1542 18.6309 20.4261 18.6479C20.5025 18.6521 20.579 18.6691 20.6512 18.6988C20.7617 18.7456 20.8339 18.8475 20.8467 18.9665C20.8594 19.0387 20.8552 19.1152 20.8339 19.1874C20.7829 19.3403 20.6597 19.4041 20.511 19.4338C20.4218 19.4551 20.3284 19.4636 20.2349 19.4551C20.0692 19.4551 19.8993 19.4423 19.7336 19.4168C19.6698 19.4083 19.6698 19.4083 19.6783 19.3403Z" fill="white"/>
<path d="M34.1143 20.0329C34.3608 20.0159 34.6072 19.9692 34.8281 19.8502C35.0532 19.7397 35.2104 19.5316 35.2572 19.2852C35.2869 19.1322 35.2869 18.9708 35.2529 18.8178C35.1637 18.4355 34.9215 18.1976 34.5562 18.0744C34.3523 18.0106 34.1356 17.9852 33.9232 17.9937C33.2094 18.0106 32.6656 18.3718 32.4447 19.0855C32.296 19.5571 32.3173 20.0371 32.4617 20.5087C32.6104 20.993 32.9503 21.2862 33.4346 21.4179C33.6428 21.4688 33.8594 21.4901 34.0719 21.4816C34.382 21.4773 34.6921 21.4179 34.9853 21.3074C35.1085 21.2607 35.1382 21.2182 35.1382 21.0865V20.7806C35.134 20.6574 35.083 20.6149 34.9598 20.6446C34.8663 20.6701 34.7771 20.6914 34.6836 20.7126C34.399 20.7806 34.1016 20.7933 33.8127 20.7424C33.5238 20.6871 33.3284 20.5214 33.2519 20.2326C33.2307 20.1476 33.2137 20.0626 33.2052 19.9734C33.2264 19.9734 33.2477 19.9734 33.2647 19.9819C33.5451 20.0329 33.8297 20.0541 34.1143 20.0329ZM33.2264 19.3531C33.2562 19.1874 33.2944 19.026 33.3964 18.8901C33.5536 18.6819 33.7702 18.6224 34.0166 18.6479C34.0379 18.6479 34.0549 18.6564 34.0761 18.6564C34.3735 18.7031 34.4457 18.941 34.3905 19.1705C34.348 19.3404 34.2078 19.4041 34.0506 19.4339C33.9657 19.4508 33.8764 19.4593 33.7872 19.4551C33.613 19.4508 33.4431 19.4381 33.2732 19.4126C33.2349 19.4084 33.2179 19.3914 33.2264 19.3531Z" fill="white"/>
</svg>
