<svg width="44" height="44" viewBox="0 0 44 44" fill="none" xmlns="http://www.w3.org/2000/svg">
<rect width="44" height="44" rx="5" fill="black" fill-opacity="0.2"/>
<path d="M34.1203 21.1933V18.9597H35.6742V21.192H38V22.6807H35.6742V24.9079H34.1203V22.6807H31.7881V21.1933H34.1203Z" fill="white"/>
<path d="M27.1814 19.569H28.1594C28.7482 19.569 29.1245 19.8736 29.1245 20.4048C29.1245 20.9834 28.7482 21.3597 28.1594 21.3597H27.1814V19.569ZM28.8646 22.5245C29.8771 22.3952 30.713 21.5248 30.713 20.4176C30.713 18.9815 29.735 18.193 28.1594 18.193H25.616V25.4224H27.1827V22.5245L29.1258 25.4199H30.9382L28.8646 22.5245Z" fill="white"/>
<path d="M16.208 19.6163V18.1917H11.4387V19.6163H13.0285V25.4198H14.6195V19.6163H16.208Z" fill="white"/>
<path d="M8.496 20.8528C8.02496 20.6403 7.84704 20.406 7.84704 20.1001C7.84704 19.7456 8.14144 19.4512 8.61248 19.464C9.02336 19.4742 9.34336 19.6982 9.56736 20.2294L10.9216 19.6278C10.5466 18.664 9.78112 18.0995 8.54592 18.0995C7.23904 18.0995 6.27392 18.9596 6.27392 20.1116C6.27392 20.9001 6.66304 21.5235 7.5808 21.9843L8.59328 22.4912C9.15648 22.7753 9.42912 22.9852 9.42912 23.3961C9.42912 23.8428 9.0656 24.1616 8.59328 24.1616C8.0864 24.1616 7.62816 23.8774 7.41568 23.2438L6 23.656C6.32896 24.8464 7.30688 25.5414 8.5792 25.5414C9.95648 25.5414 11.0163 24.6582 11.0163 23.3872C11.0163 22.4092 10.4877 21.7616 9.47264 21.3046L8.496 20.8528Z" fill="white"/>
<path d="M25.1911 20.4867H21.5226L20.3872 17L19.2519 20.4867H15.5847L18.5274 22.6461C18.5274 22.6461 19.9661 21.6989 21.7095 21.3418C19.1379 23.24 17.7415 25.1229 17.7415 25.1229L17.4202 26.1354L20.3872 23.9811L23.3555 26.1354L22.2227 22.6461L25.1911 20.4867Z" fill="url(#paint0_linear_1079_2613)"/>
<defs>
<linearGradient id="paint0_linear_1079_2613" x1="17.0322" y1="25.7475" x2="23.7618" y2="19.024" gradientUnits="userSpaceOnUse">
<stop offset="0.28" stop-color="#FA1660"/>
<stop offset="0.78" stop-color="#FF7D17"/>
</linearGradient>
</defs>
</svg>
