<svg width="64" height="64" viewBox="0 0 64 64" fill="none" xmlns="http://www.w3.org/2000/svg">
<path d="M49.2481 30.7994V27.5755H51.4909V30.7976H54.8479V32.9462H51.4909V36.1609H49.2481V32.9462H45.8819V30.7994H49.2481Z" fill="white"/>
<path d="M39.2327 28.4549H40.6442C41.4941 28.4549 42.0373 28.8946 42.0373 29.6613C42.0373 30.4964 41.4941 31.0395 40.6442 31.0395H39.2327V28.4549ZM41.6622 32.7208C43.1236 32.5342 44.33 31.2779 44.33 29.6798C44.33 27.6069 42.9185 26.4688 40.6442 26.4688H36.9732V36.9035H39.2346V32.7208L42.0391 36.8998H44.6552L41.6622 32.7208Z" fill="white"/>
<path d="M23.3941 28.5233V26.467H16.5103V28.5233H18.8049V36.8999H21.1013V28.5233H23.3941Z" fill="white"/>
<path d="M12.2628 30.308C11.5829 30.0013 11.3261 29.6632 11.3261 29.2216C11.3261 28.7099 11.7511 28.285 12.4309 28.3034C13.024 28.3182 13.4859 28.6415 13.8092 29.4082L15.7639 28.5399C15.2225 27.1487 14.1177 26.334 12.3349 26.334C10.4486 26.334 9.05555 27.5755 9.05555 29.2383C9.05555 30.3763 9.6172 31.2761 10.9419 31.9412L12.4032 32.6728C13.2161 33.0829 13.6097 33.3859 13.6097 33.979C13.6097 34.6237 13.085 35.0838 12.4032 35.0838C11.6716 35.0838 11.0102 34.6736 10.7035 33.7591L8.66019 34.354C9.135 36.0722 10.5465 37.0754 12.3829 37.0754C14.3708 37.0754 15.9006 35.8006 15.9006 33.966C15.9006 32.5545 15.1375 31.6197 13.6725 30.9601L12.2628 30.308Z" fill="white"/>
<path d="M36.3599 29.7796H31.0649L29.4262 24.7469L27.7874 29.7796H22.4943L26.7418 32.8963C26.7418 32.8963 28.8184 31.5291 31.3347 31.0137C27.623 33.7535 25.6074 36.4712 25.6074 36.4712L25.1437 37.9326L29.4262 34.8233L33.7106 37.9326L32.0755 32.8963L36.3599 29.7796Z" fill="url(#paint0_linear_124_139)"/>
<defs>
<linearGradient id="paint0_linear_124_139" x1="24.5837" y1="37.3727" x2="34.297" y2="27.6684" gradientUnits="userSpaceOnUse">
<stop offset="0.28" stop-color="#FA1660"/>
<stop offset="0.78" stop-color="#FF7D17"/>
</linearGradient>
</defs>
</svg>
