<svg width="44" height="44" viewBox="0 0 44 44" fill="none" xmlns="http://www.w3.org/2000/svg">
<rect width="44" height="44" rx="5" fill="black" fill-opacity="0.2"/>
<path d="M31.5533 26.9129C31.3548 27.955 30.5111 28.749 29.469 28.8979C27.8314 29.146 25.102 29.4438 22.0252 29.4438C18.998 29.4438 16.2686 29.146 14.5814 28.8979C13.5392 28.749 12.6956 27.955 12.4971 26.9129C12.2986 25.7715 12.1001 24.0842 12.1001 22C12.1001 19.9157 12.2986 18.2284 12.4971 17.0871C12.6956 16.0449 13.5392 15.2509 14.5814 15.102C16.219 14.8539 18.9484 14.5562 22.0252 14.5562C25.102 14.5562 27.7817 14.8539 29.469 15.102C30.5111 15.2509 31.3548 16.0449 31.5533 17.0871C31.7518 18.2284 31.9999 19.9157 31.9999 22C31.9503 24.0842 31.7518 25.7715 31.5533 26.9129Z" fill="#FF3D00"/>
<path d="M20.0403 25.4737V18.5262L25.9953 22L20.0403 25.4737Z" fill="white"/>
</svg>
