<svg width="64" height="65" viewBox="0 0 64 65" fill="none" xmlns="http://www.w3.org/2000/svg">
<path d="M45.543 39.3451C45.2565 40.8493 44.0389 41.9954 42.5347 42.2102C40.171 42.5684 36.2314 42.9981 31.7905 42.9981C27.4212 42.9981 23.4817 42.5684 21.0464 42.2102C19.5422 41.9954 18.3245 40.8493 18.038 39.3451C17.7515 37.6977 17.465 35.2624 17.465 32.254C17.465 29.2456 17.7515 26.8103 18.038 25.1629C18.3245 23.6587 19.5422 22.5126 21.0464 22.2978C23.4101 21.9396 27.3496 21.5099 31.7905 21.5099C36.2314 21.5099 40.0993 21.9396 42.5347 22.2978C44.0389 22.5126 45.2565 23.6587 45.543 25.1629C45.8295 26.8103 46.1877 29.2456 46.1877 32.254C46.1161 35.2624 45.8295 37.6977 45.543 39.3451Z" fill="#FF3D00"/>
<path d="M28.9255 37.268V27.2401L37.5208 32.254L28.9255 37.268Z" fill="white"/>
</svg>
